<svg xmlns="http://www.w3.org/2000/svg" width="800" height="600" viewBox="0 0 800 600">
  <defs>
    <linearGradient id="overlay" x1="0%" y1="0%" x2="0%" y2="100%">
      <stop offset="0%" style="stop-color: rgba(0,0,0,0.2)" />
      <stop offset="100%" style="stop-color: rgba(0,0,0,0.5)" />
    </linearGradient>
    <linearGradient id="snow" x1="0%" y1="0%" x2="0%" y2="100%">
      <stop offset="0%" style="stop-color: #FFFFFF" />
      <stop offset="100%" style="stop-color: #E8E8E8" />
    </linearGradient>
  </defs>
  <rect width="800" height="600" fill="#D6EAF8"/>
  <path d="M 0 150 L 200 50 L 400 200 L 600 100 L 800 150 L 800 600 L 0 600 Z" fill="#2E4053"/>
  <path d="M 100 100 L 300 20 L 500 150 L 700 50 L 800 100 L 800 0 L 0 0 L 0 100 Z" fill="url(#snow)"/>
  <path d="M 200 300 L 300 200 L 400 300 L 500 200 L 600 300" fill="none" stroke="#FFFFFF" stroke-width="4"/>
  <circle cx="650" cy="100" r="40" fill="#FFF" opacity="0.8"/>
  <rect x="0" y="0" width="800" height="600" fill="url(#overlay)" />
  <text x="400" y="550" font-family="Arial" font-size="24" fill="white" text-anchor="middle">Shimla-Manali</text>
</svg>