<?xml version="1.0" encoding="UTF-8"?>
<svg version="1.1" xmlns="http://www.w3.org/2000/svg" width="1024" height="1024">
<path d="M0 0 C337.92 0 675.84 0 1024 0 C1024 337.92 1024 675.84 1024 1024 C686.08 1024 348.16 1024 0 1024 C0 686.08 0 348.16 0 0 Z " fill="#C5151A" transform="translate(0,0)"/>
<path d="M0 0 C80.19 0 160.38 0 243 0 C243 85.8 243 171.6 243 260 C162.81 260 82.62 260 0 260 C0 174.2 0 88.4 0 0 Z " fill="#C31519" transform="translate(118,335)"/>
<path d="M0 0 C79.86 0 159.72 0 242 0 C242 85.8 242 171.6 242 260 C162.14 260 82.28 260 0 260 C0 174.2 0 88.4 0 0 Z " fill="#C31519" transform="translate(663,335)"/>
<path d="M0 0 C79.53 0 159.06 0 241 0 C241 85.8 241 171.6 241 260 C161.47 260 81.94 260 0 260 C0 174.2 0 88.4 0 0 Z " fill="#C3151A" transform="translate(391,335)"/>
<path d="M0 0 C10.78286761 9.1239649 16.16403924 21.4816912 17.84375 35.40625 C17.96706548 37.77050541 17.94674166 40.03744179 17.84375 42.40625 C13.64275492 43.5595826 9.47287804 43.73517128 5.140625 43.94140625 C4.30283508 43.98438339 3.46504517 44.02736053 2.60186768 44.07164001 C-0.06733274 44.20771415 -2.73676925 44.33830291 -5.40625 44.46875 C-7.21876829 44.56018507 -9.03126857 44.65197778 -10.84375 44.74414062 C-15.28105196 44.96899025 -19.71857357 45.18892153 -24.15625 45.40625 C-24.34453369 44.38108276 -24.34453369 44.38108276 -24.53662109 43.33520508 C-24.79306396 41.98785278 -24.79306396 41.98785278 -25.0546875 40.61328125 C-25.22145996 39.72358643 -25.38823242 38.8338916 -25.56005859 37.91723633 C-26.80959314 32.65455704 -29.54089934 29.60928133 -33.90625 26.65625 C-42.38909081 21.83328201 -51.56393044 21.31333058 -61.15625 22.40625 C-67.14276867 24.22561657 -72.69005674 26.65389307 -75.96875 32.21875 C-77.66219686 36.71455056 -77.45828659 40.82784684 -76.15625 45.40625 C-72.30683334 53.41303665 -64.2201883 56.72449122 -56.21875 59.53125 C-55.43806152 59.81419922 -54.65737305 60.09714844 -53.85302734 60.38867188 C-48.28009049 62.38027396 -42.66373464 64.22836424 -37.03515625 66.0546875 C-35.57997808 66.529728 -34.12481875 67.00482618 -32.66967773 67.47998047 C-29.80799504 68.41381065 -26.94136201 69.32952163 -24.07055664 70.23486328 C-8.12936507 75.35109698 7.18297547 82.48530879 15.59765625 97.7890625 C23.57226665 114.53824422 23.16473526 130.52285634 18.03515625 148.19140625 C13.19434922 161.76718064 2.63011669 173.04149465 -10.28125 179.21875 C-34.01978406 189.96173622 -62.14349065 190.52926177 -86.53125 181.65625 C-93.28582809 179.04703046 -99.3018909 175.69089055 -105.15625 171.40625 C-106.10177734 170.75269531 -106.10177734 170.75269531 -107.06640625 170.0859375 C-116.09119991 163.21969357 -122.19376268 152.14322061 -125.15625 141.40625 C-125.37925781 140.601875 -125.60226563 139.7975 -125.83203125 138.96875 C-126.97828734 134.35253499 -127.22549332 130.18403915 -127.15625 125.40625 C-112.77926438 123.50740284 -98.64830849 123.16437459 -84.15625 123.40625 C-83.98101807 124.14375488 -83.80578613 124.88125977 -83.62524414 125.64111328 C-81.41507525 134.40804423 -78.41259073 140.15602748 -70.515625 145.0390625 C-63.78118902 148.48504582 -58.5136369 149.61034579 -51.03125 149.65625 C-50.21398437 149.676875 -49.39671875 149.6975 -48.5546875 149.71875 C-41.40799289 149.76398224 -34.61358238 148.52514525 -28.78125 144.15625 C-24.7015121 139.88223887 -23.02733403 135.75939232 -22.71875 129.90625 C-22.90043319 125.05861216 -24.31533415 122.32210698 -27.15625 118.40625 C-36.07241314 110.39809782 -49.44168571 107.16004158 -60.59375 103.46875 C-70.78773604 100.03484432 -80.60212797 96.37914084 -90.15625 91.40625 C-91.28675781 90.85582031 -92.41726562 90.30539062 -93.58203125 89.73828125 C-106.90203615 83.02450715 -114.7655413 75.23525556 -120.15625 61.40625 C-124.82852744 46.29190283 -123.34738133 29.44945246 -116.68359375 15.2734375 C-109.44701695 1.62145574 -97.42908431 -6.51763421 -83.00097656 -11.30957031 C-55.654715 -19.3979012 -23.41356092 -17.38630761 0 0 Z " fill="#F8F3EE" transform="translate(295.15625,379.59375)"/>
<path d="M0 0 C51.15 0 102.3 0 155 0 C155 13.2 155 26.4 155 40 C136.85 40 118.7 40 100 40 C100 90.82 100 141.64 100 194 C84.82 194 69.64 194 54 194 C54 143.18 54 92.36 54 40 C36.18 40 18.36 40 0 40 C0 26.8 0 13.6 0 0 Z " fill="#F8F4EF" transform="translate(707,368)"/>
<path d="M0 0 C15.18 0 30.36 0 46 0 C46 64.02 46 128.04 46 194 C30.82 194 15.64 194 0 194 C0 129.98 0 65.96 0 0 Z " fill="#F8F5F0" transform="translate(489,368)"/>
<path d="M0 0 C85.14 0 170.28 0 258 0 C258 90.75 258 181.5 258 275 C172.86 275 87.72 275 0 275 C0 184.25 0 93.5 0 0 Z M7 8 C7 93.8 7 179.6 7 268 C87.19 268 167.38 268 250 268 C250 182.2 250 96.4 250 8 C169.81 8 89.62 8 7 8 Z " fill="#F4F3EE" transform="translate(111,327)"/>
<path d="M0 0 C84.81 0 169.62 0 257 0 C257 90.75 257 181.5 257 275 C172.19 275 87.38 275 0 275 C0 184.25 0 93.5 0 0 Z M8 8 C8 93.8 8 179.6 8 268 C87.86 268 167.72 268 250 268 C250 182.2 250 96.4 250 8 C170.14 8 90.28 8 8 8 Z " fill="#F4F2EE" transform="translate(655,327)"/>
<path d="M0 0 C84.48 0 168.96 0 256 0 C256 90.75 256 181.5 256 275 C171.52 275 87.04 275 0 275 C0 184.25 0 93.5 0 0 Z M7 8 C7 93.8 7 179.6 7 268 C86.53 268 166.06 268 248 268 C248 182.2 248 96.4 248 8 C168.47 8 88.94 8 7 8 Z " fill="#F3F5F2" transform="translate(384,327)"/>
<path d="M0 0 C84.48 0 168.96 0 256 0 C255.67 1.98 255.34 3.96 255 6 C254.67 4.68 254.34 3.36 254 2 C200.21 2.33 146.42 2.66 91 3 C90.67 3.66 90.34 4.32 90 5 C142.8 5.33 195.6 5.66 250 6 C250 92.46 250 178.92 250 268 C249.67 268 249.34 268 249 268 C249 181.87 249 95.74 249 7 C169.14 7 89.28 7 7 7 C7 93.46 7 179.92 7 269 C86.86 269 166.72 269 249 269 C249 269.33 249 269.66 249 270 C168.81 270 88.62 270 6 270 C4.63160637 267.26321275 4.78365182 264.95735576 4.68359375 261.8984375 C4.62075195 260.08085938 4.62075195 260.08085938 4.55664062 258.2265625 C4.51732422 256.95554687 4.47800781 255.68453125 4.4375 254.375 C4.39431641 253.09625 4.35113281 251.8175 4.30664062 250.5 C4.20030114 247.33344652 4.09827167 244.16681247 4 241 C3.01 241.99 3.01 241.99 2 243 C0.74395883 238.13661681 0.84712845 233.34923698 0.84178162 228.36332703 C0.83685196 227.38952087 0.8319223 226.41571472 0.82684326 225.41239929 C0.81145759 222.13650693 0.80310368 218.86063393 0.79467773 215.5847168 C0.78496272 213.20117681 0.77481727 210.81763854 0.76427555 208.43410206 C0.73720837 202.0447655 0.71604104 195.65542207 0.69608307 189.26605988 C0.67647261 183.27293947 0.65155842 177.27984573 0.6270752 171.28674316 C0.55854622 153.75368216 0.49854558 136.22058866 0.4375 118.6875 C0.293125 79.520625 0.14875 40.35375 0 0 Z " fill="#F8F7F5" transform="translate(384,327)"/>
<path d="M0 0 C84.81 0 169.62 0 257 0 C257 90.75 257 181.5 257 275 C172.19 275 87.38 275 0 275 C0 184.25 0 93.5 0 0 Z M2 2 C2 2.66 2 3.32 2 4 C3.98 4 5.96 4 8 4 C7.67 4.99 7.34 5.98 7 7 C7 7.66 7 8.32 7 9 C6.34 8.34 5.68 7.68 5 7 C3.83098888 9.33802224 3.87110676 10.7058059 3.86412811 13.31105614 C3.85927037 14.22173768 3.85441262 15.13241923 3.84940767 16.07069719 C3.84911169 17.07768053 3.8488157 18.08466388 3.84851074 19.12216187 C3.84427833 20.18685562 3.84004592 21.25154937 3.83568525 22.34850657 C3.82260005 25.93985858 3.81662092 29.53118837 3.81054688 33.12255859 C3.80260911 35.6877608 3.79422154 38.25296164 3.78541565 40.81816101 C3.76732408 46.35388205 3.75220984 51.88959884 3.73963928 57.42533493 C3.72136298 65.43349909 3.69669758 73.44163388 3.67026538 81.44977482 C3.62744736 94.44730133 3.58833965 107.44483595 3.55224609 120.44238281 C3.55008329 121.22075302 3.54792049 121.99912323 3.54569215 122.80108042 C3.53036513 128.32572002 3.51516924 133.85035997 3.5 139.375 C3.4826789 145.68229193 3.4652932 151.98958367 3.44775391 158.296875 C3.44559504 159.07369379 3.44343617 159.85051257 3.44121188 160.65087132 C3.40511469 173.59638762 3.36516077 186.54188926 3.32245111 199.48738539 C3.29628179 207.47656805 3.27362586 215.46574622 3.25546753 223.45495118 C3.24131405 229.57444216 3.22218725 235.69390809 3.20121574 241.81337929 C3.19344492 244.32728544 3.18738183 246.84119752 3.18312263 249.35511208 C3.17709543 252.77806353 3.16505646 256.20094222 3.15148926 259.62387085 C3.15119327 260.62639275 3.15089728 261.62891465 3.15059233 262.661816 C3.14330571 264.03566156 3.14330571 264.03566156 3.13587189 265.43726158 C3.13375592 266.2275146 3.13163995 267.01776763 3.12945986 267.83196771 C3 270 3 270 2 274 C85.82 274 169.64 274 256 274 C256 184.24 256 94.48 256 2 C172.18 2 88.36 2 2 2 Z " fill="#FADFDF" transform="translate(655,327)"/>
<path d="M0 0 C5.98528923 3.33152463 10.57524845 8.53824534 12.75 15.0625 C13.38947697 22.72574037 13.67661848 29.80473391 8.75 36.0625 C3.94241117 41.12100682 -0.42179485 44.62799643 -7.51953125 45.43359375 C-15.13845597 45.57639609 -20.52964098 45.37046104 -26.25 40.0625 C-31.86421066 34.53640475 -34.52863035 29.79686573 -34.625 21.75 C-34.49391969 14.91840283 -33.3240321 10.39523777 -28.671875 5.3515625 C-20.45107592 -2.23971593 -10.39636279 -4.57313371 0 0 Z " fill="#A61113" transform="translate(958.25,333.9375)"/>
<path d="M0 0 C85.14 0 170.28 0 258 0 C258 90.75 258 181.5 258 275 C172.86 275 87.72 275 0 275 C0 184.25 0 93.5 0 0 Z M1 2 C1 91.76 1 181.52 1 274 C85.15 274 169.3 274 256 274 C256 184.24 256 94.48 256 2 C171.85 2 87.7 2 1 2 Z " fill="#FBDADB" transform="translate(111,327)"/>
<path d="M0 0 C1.22237869 -0.00262848 1.22237869 -0.00262848 2.4694519 -0.00531006 C5.16585412 -0.00971486 7.86219086 -0.00679539 10.55859375 -0.00341797 C12.43042005 -0.0040914 14.30224627 -0.00506176 16.17407227 -0.00631714 C20.098153 -0.00779225 24.02221097 -0.00564552 27.94628906 -0.00097656 C32.98034984 0.00472061 38.01435731 0.00144061 43.04841614 -0.00454903 C46.91394453 -0.00815965 50.77946024 -0.00701374 54.64498901 -0.00442123 C56.50137335 -0.00375336 58.35775884 -0.00457555 60.21414185 -0.00690079 C62.80685481 -0.0094355 65.39948101 -0.00557509 67.9921875 0 C68.76215057 -0.00202423 69.53211365 -0.00404846 70.32540894 -0.00613403 C73.48570029 0.00647812 75.97486401 0.12231795 78.99609375 1.12939453 C78.99609375 2.44939453 78.99609375 3.76939453 78.99609375 5.12939453 C77.67609375 5.45939453 76.35609375 5.78939453 74.99609375 6.12939453 C74.99609375 91.59939453 74.99609375 177.06939453 74.99609375 265.12939453 C74.66609375 265.12939453 74.33609375 265.12939453 73.99609375 265.12939453 C73.99609375 178.99939453 73.99609375 92.86939453 73.99609375 4.12939453 C-6.52390625 4.12939453 -87.04390625 4.12939453 -170.00390625 4.12939453 C-170.00390625 90.58939453 -170.00390625 177.04939453 -170.00390625 266.12939453 C-89.48390625 266.12939453 -8.96390625 266.12939453 73.99609375 266.12939453 C73.99609375 266.45939453 73.99609375 266.78939453 73.99609375 267.12939453 C-6.85390625 267.12939453 -87.70390625 267.12939453 -171.00390625 267.12939453 C-173.25391263 261.50437858 -173.25391263 261.50437858 -173.23717785 257.48766708 C-173.23829325 256.57961248 -173.23940865 255.67155788 -173.24055785 254.73598647 C-173.23152334 253.74736814 -173.22248883 252.7587498 -173.21318054 251.74017334 C-173.21151141 250.68305027 -173.20984227 249.62592721 -173.20812255 248.53677011 C-173.20003749 244.98909329 -173.17749867 241.4416557 -173.1550293 237.89404297 C-173.14624155 235.35309119 -173.13832818 232.81213625 -173.13122559 230.2711792 C-173.1115819 224.08382047 -173.08255803 217.89656631 -173.04918488 211.7092683 C-173.01073641 204.50832863 -172.98285511 197.30735975 -172.95539782 190.10637119 C-172.90605813 177.26341597 -172.84697465 164.42052393 -172.7824707 151.57763672 C-172.71983385 139.10500416 -172.66425431 126.63236634 -172.61645508 114.15966797 C-172.61350804 113.39090213 -172.610561 112.62213629 -172.60752466 111.83007452 C-172.60458333 111.06265795 -172.601642 110.29524138 -172.59861153 109.50456977 C-172.5441717 95.31515517 -172.4831868 81.1257753 -172.41910505 66.93640117 C-172.39656212 61.91188843 -172.37596409 56.8873698 -172.35596275 51.86284637 C-172.32893381 45.10940327 -172.2963461 38.35600805 -172.26000214 31.60260773 C-172.24740055 29.11646836 -172.23650979 26.63031967 -172.22740364 24.14416504 C-172.21473583 20.76629423 -172.19599069 17.38851272 -172.17558289 14.01068115 C-172.17324054 13.01313993 -172.17089819 12.01559871 -172.16848487 10.98782897 C-172.16177702 10.09020536 -172.15506918 9.19258174 -172.14815807 8.26775742 C-172.14441589 7.48710474 -172.1406737 6.70645206 -172.13681811 5.90214324 C-172.00390625 4.12939453 -172.00390625 4.12939453 -171.00390625 3.12939453 C-168.94096347 3.03257631 -166.87464583 3.00752531 -164.80943298 3.00914001 C-164.15521018 3.00828559 -163.50098738 3.00743116 -162.82693964 3.00655085 C-160.61889282 3.00489425 -158.41092077 3.01042032 -156.20288086 3.01586914 C-154.62639874 3.016151 -153.04991649 3.0159933 -151.47343445 3.01542664 C-147.18023076 3.01513861 -142.88705476 3.02103613 -138.59385753 3.02800059 C-134.11217942 3.03423332 -129.63050074 3.03483786 -125.14881897 3.036026 C-116.65609716 3.03913956 -108.16338816 3.04735327 -99.670672 3.05737549 C-90.00457086 3.06853587 -80.33846913 3.07404689 -70.67236316 3.07907093 C-50.78287037 3.08953587 -30.89338911 3.10713578 -11.00390625 3.12939453 C-11.00390625 2.46939453 -11.00390625 1.80939453 -11.00390625 1.12939453 C-7.29454715 -0.1070585 -3.862538 -0.0101546 0 0 Z " fill="#F9FAF9" transform="translate(288.00390625,329.87060546875)"/>
<path d="M0 0 C3.3 0 6.6 0 10 0 C10 18.48 10 36.96 10 56 C7.03 56 4.06 56 1 56 C0.67 54.68 0.34 53.36 0 52 C-0.5775 52.66 -1.155 53.32 -1.75 54 C-6.67990283 57.03378636 -11.35857187 56.87144012 -17 56 C-21.49445611 54.02383836 -23.56773608 50.42678025 -25.38696289 45.98217773 C-26.45583748 42.52610731 -26.48775808 39.15655594 -26.4375 35.5625 C-26.43065186 34.81331299 -26.42380371 34.06412598 -26.41674805 33.29223633 C-26.20882792 26.15520265 -24.78765186 21.65166884 -19.4375 16.5625 C-15.25152659 13.87918371 -11.90055713 13.66203054 -7 14 C-4.68720389 15.15639806 -2.82590172 16.17409828 -1 18 C-0.67 12.06 -0.34 6.12 0 0 Z " fill="#F4EEEA" transform="translate(738,643)"/>
<path d="M0 0 C3.3 0 6.6 0 10 0 C10 6.93 10 13.86 10 21 C16.93 21 23.86 21 31 21 C31 14.07 31 7.14 31 0 C34.63 0 38.26 0 42 0 C42 17.82 42 35.64 42 54 C38.37 54 34.74 54 31 54 C31 46.08 31 38.16 31 30 C24.07 30 17.14 30 10 30 C10 37.92 10 45.84 10 54 C6.7 54 3.4 54 0 54 C0 36.18 0 18.36 0 0 Z " fill="#F7F5F1" transform="translate(555,645)"/>
<path d="M0 0 C4.51104867 3.96425489 6.76520114 8.56191418 7.3359375 14.48828125 C7.4779907 28.39528907 7.4779907 28.39528907 3 34 C-2.5271957 39.2575764 -7.402006 39.35102274 -14.76171875 39.27734375 C-19.37614746 38.88213936 -21.40025092 37.91043542 -25 35 C-30.85173038 27.60834057 -30.71899069 20.17226692 -30 11 C-28.54707779 5.35460947 -25.55123701 2.10821572 -20.78125 -1.08984375 C-14.09286884 -4.50737184 -6.4017194 -3.60432941 0 0 Z " fill="#F7F2EF" transform="translate(641,660)"/>
<path d="M0 0 C4.42185159 2.77163481 7.27170713 7.31902765 8.89453125 12.1875 C9.04156189 14.62198818 9.11558464 17.0612477 9.14453125 19.5 C9.1703125 20.79550781 9.19609375 22.09101562 9.22265625 23.42578125 C8.64949236 29.99669585 5.76612096 33.9100066 0.89453125 38.1875 C-4.22585116 41.42738798 -10.28284228 40.75556112 -16.10546875 40.1875 C-21.50721072 38.54835071 -24.41731157 35.04686105 -27.10546875 30.1875 C-29.27631884 23.67494974 -29.11165787 15.16900423 -26.98046875 8.625 C-24.35906912 3.81910068 -21.55227893 1.53968457 -16.73046875 -1.125 C-10.93647823 -2.64247371 -5.50925023 -2.26020522 0 0 Z " fill="#F7F1EE" transform="translate(216.10546875,658.8125)"/>
<path d="M0 0 C80.52 0 161.04 0 244 0 C244.33 0.66 244.66 1.32 245 2 C245.66 2 246.32 2 247 2 C247 88.46 247 174.92 247 264 C246.01 263.67 245.02 263.34 244 263 C242.60913079 262.90622101 241.21423623 262.86634154 239.82021809 262.8613348 C238.96429642 262.85586036 238.10837475 262.85038591 237.22651607 262.84474558 C236.28586321 262.84376747 235.34521035 262.84278936 234.37605286 262.84178162 C232.87762778 262.83437465 232.87762778 262.83437465 231.34893149 262.82681805 C227.98628483 262.81140391 224.62365731 262.80307182 221.26098633 262.79467773 C218.85663178 262.78510229 216.45227892 262.77509241 214.04792786 262.76467896 C208.86362738 262.74320657 203.67932546 262.72476929 198.49500465 262.70907402 C190.99931732 262.68637599 183.50365823 262.65823306 176.00799485 262.62875474 C163.84722063 262.58107802 151.68643485 262.53781405 139.52563477 262.49731445 C127.71149802 262.45795994 115.89737154 262.41653382 104.08325195 262.37231445 C103.3552132 262.36959018 102.62717445 262.36686591 101.87707392 262.36405908 C98.22477231 262.35037961 94.57247085 262.33665934 90.92016947 262.32291877 C60.61346756 262.20895273 30.30674395 262.102217 0 262 C0 261.67 0 261.34 0 261 C80.19 261 160.38 261 243 261 C243 175.2 243 89.4 243 1 C162.81 1 82.62 1 0 1 C0 0.67 0 0.34 0 0 Z " fill="#F1CBC8" transform="translate(118,334)"/>
<path d="M0 0 C79.86 0 159.72 0 242 0 C242.33 50.16 242.66 100.32 243 152 C243.66 151.67 244.32 151.34 245 151 C247.12645058 154.18967587 247.24868921 154.9602658 247.24050903 158.61271667 C247.24463303 160.03248055 247.24463303 160.03248055 247.24884033 161.48092651 C247.2380545 163.03567184 247.2380545 163.03567184 247.22705078 164.62182617 C247.22734283 165.71466415 247.22763489 166.80750214 247.22793579 167.93345642 C247.22654007 171.55337404 247.2109673 175.173087 247.1953125 178.79296875 C247.19158324 181.29974759 247.18873586 183.80652789 247.18673706 186.31330872 C247.17987545 192.24187499 247.16410513 198.17037537 247.14403808 204.09890777 C247.11949512 211.51058687 247.10874934 218.92227505 247.09765625 226.33398438 C247.07619414 239.55602816 247.0420498 252.77800679 247 266 C243.04 266 239.08 266 235 266 C235.33 265.01 235.66 264.02 236 263 C158.12 262.67 80.24 262.34 0 262 C0 261.67 0 261.34 0 261 C79.53 261 159.06 261 241 261 C241 175.2 241 89.4 241 1 C161.47 1 81.94 1 0 1 C0 0.67 0 0.34 0 0 Z " fill="#EBBCB9" transform="translate(391,334)"/>
<path d="M0 0 C4.11932105 3.58866616 5.61595874 6.65485372 6.10498047 12.03295898 C6.18290024 16.19504608 6.13853796 20.33548552 6.0390625 24.49609375 C6.01897227 25.9576579 6.00072594 27.41924861 5.984375 28.88085938 C5.94056586 32.44066149 5.87167796 35.99945629 5.7890625 39.55859375 C2.4890625 39.55859375 -0.8109375 39.55859375 -4.2109375 39.55859375 C-4.2109375 38.23859375 -4.2109375 36.91859375 -4.2109375 35.55859375 C-5.1390625 36.21859375 -6.0671875 36.87859375 -7.0234375 37.55859375 C-11.8816749 40.32907536 -16.76292164 40.39221596 -22.2109375 39.55859375 C-25.46298691 37.76664816 -26.71391993 36.43429138 -28.5234375 33.24609375 C-29.7872007 28.3059285 -29.90336757 24.89216278 -27.5234375 20.30859375 C-24.25975184 16.42745404 -21.84923586 14.71304612 -16.73046875 14.23046875 C-15.50714844 14.25625 -14.28382813 14.28203125 -13.0234375 14.30859375 C-11.79238281 14.3240625 -10.56132812 14.33953125 -9.29296875 14.35546875 C-6.2109375 14.55859375 -6.2109375 14.55859375 -4.2109375 15.55859375 C-4.49244837 14.24387807 -4.78647089 12.93183608 -5.0859375 11.62109375 C-5.24835938 10.89019531 -5.41078125 10.15929687 -5.578125 9.40625 C-6.04055273 7.35159081 -6.04055273 7.35159081 -8.2109375 6.55859375 C-11.16898323 6.22518904 -11.16898323 6.22518904 -14.2109375 6.55859375 C-14.66210938 7.05488281 -15.11328125 7.55117188 -15.578125 8.0625 C-17.85512656 10.14884354 -19.36840892 9.86414681 -22.3984375 9.74609375 C-23.29949219 9.71902344 -24.20054687 9.69195313 -25.12890625 9.6640625 C-25.81597656 9.62925781 -26.50304687 9.59445312 -27.2109375 9.55859375 C-26.91092 6.05838953 -26.25360009 4.60955184 -23.9609375 1.87109375 C-16.82508345 -4.1295108 -8.19811011 -3.92462718 0 0 Z " fill="#F6F4F1" transform="translate(374.2109375,659.44140625)"/>
<path d="M0 0 C2.79656139 2.35499907 3.83771178 3.51313533 5 7 C5.0845387 9.4410776 5.11605786 11.85259213 5.09765625 14.29296875 C5.0962413 14.99899734 5.09482635 15.70502594 5.09336853 16.43244934 C5.08777764 18.68417626 5.07522688 20.93580321 5.0625 23.1875 C5.05748382 24.71549335 5.05292112 26.24348827 5.04882812 27.77148438 C5.0378112 31.51436135 5.02055287 35.25716373 5 39 C2.03 39 -0.94 39 -4 39 C-4 37.68 -4 36.36 -4 35 C-4.928125 35.66 -5.85625 36.32 -6.8125 37 C-11.67234077 39.75588532 -16.55665132 39.96588744 -22 39 C-25.66537425 37.12801549 -27.67879147 34.9636256 -29 31 C-29.60769955 25.87796092 -29.92072493 22.22763324 -26.75 18 C-22.07438493 14.59955268 -19.29750047 13.73916666 -13.4375 13.8125 C-11.73400391 13.82216797 -11.73400391 13.82216797 -9.99609375 13.83203125 C-7 14 -7 14 -4 15 C-4.66 12.03 -5.32 9.06 -6 6 C-7.423125 5.938125 -8.84625 5.87625 -10.3125 5.8125 C-11.11300781 5.77769531 -11.91351562 5.74289062 -12.73828125 5.70703125 C-15.08106189 5.77335988 -15.08106189 5.77335988 -16.46875 7.5 C-18 9 -18 9 -20.48046875 9.29296875 C-21.37378906 9.25816406 -22.26710938 9.22335937 -23.1875 9.1875 C-24.08855469 9.16042969 -24.98960937 9.13335938 -25.91796875 9.10546875 C-26.60503906 9.07066406 -27.29210937 9.03585937 -28 9 C-26.75749216 4.02996862 -25.2997891 1.79986267 -21 -1 C-14.12647622 -4.81862432 -6.61813672 -3.63348683 0 0 Z " fill="#F7F4F1" transform="translate(791,660)"/>
<path d="M0 0 C1.98 0 3.96 0 6 0 C6 0.66 6 1.32 6 2 C125.79 2.495 125.79 2.495 248 3 C248 3.33 248 3.66 248 4 C168.14 4 88.28 4 6 4 C6 89.8 6 175.6 6 264 C5.67 264 5.34 264 5 264 C4.67 178.53 4.34 93.06 4 5 C3.67 5 3.34 5 3 5 C2.99864347 5.55112892 2.99728694 6.10225784 2.99588931 6.67008764 C2.91529295 39.31222226 2.82436053 71.9543097 2.71994839 104.59637656 C2.70742906 108.51306265 2.69499635 112.42974901 2.68261719 116.34643555 C2.68015119 117.12619907 2.6776852 117.9059626 2.67514448 118.70935532 C2.63538751 131.34614287 2.60265319 143.9829394 2.57250018 156.6197531 C2.54141985 169.57990685 2.50282519 182.54002239 2.45720994 195.50013322 C2.4292861 203.50147314 2.40727002 211.50278503 2.39273749 219.50416066 C2.38097955 225.63278198 2.35878251 231.76132441 2.33261681 237.88990021 C2.32351399 240.40905695 2.31784454 242.92822869 2.31578636 245.44740105 C2.31248289 248.87526332 2.29705751 252.30285874 2.2784729 255.73066711 C2.28040763 256.7374661 2.28234237 257.74426508 2.28433573 258.78157312 C2.27313749 260.1542822 2.27313749 260.1542822 2.26171303 261.55472279 C2.25943471 262.34643967 2.25715638 263.13815656 2.25480902 263.95386487 C2 266 2 266 0 269 C0 180.23 0 91.46 0 0 Z " fill="#F2BEBA" transform="translate(657,331)"/>
<path d="M0 0 C11.55 0 23.1 0 35 0 C35 2.97 35 5.94 35 9 C26.75 9 18.5 9 10 9 C10 13.29 10 17.58 10 22 C17.26 22 24.52 22 32 22 C32 24.97 32 27.94 32 31 C24.74 31 17.48 31 10 31 C10 38.59 10 46.18 10 54 C6.7 54 3.4 54 0 54 C0 36.18 0 18.36 0 0 Z " fill="#F4F5F2" transform="translate(142,645)"/>
<path d="M0 0 C3.63 0 7.26 0 11 0 C13.1967112 6.48458591 15.23748668 12.99986258 17.1875 19.5625 C17.59645508 20.93245117 17.59645508 20.93245117 18.01367188 22.33007812 C18.67705931 24.55300795 19.33914728 26.77631558 20 29 C20.23710693 28.15703369 20.47421387 27.31406738 20.71850586 26.44555664 C21.59737947 23.32696593 22.47919507 20.20922693 23.36303711 17.09204102 C23.74541054 15.74113989 24.12659948 14.38990292 24.5065918 13.03833008 C25.05207915 11.0988985 25.60214164 9.16075556 26.15234375 7.22265625 C26.48226318 6.05484619 26.81218262 4.88703613 27.15209961 3.68383789 C28 1 28 1 29 0 C32.33327842 -0.1424478 35.66453893 -0.04222103 39 0 C36.86330132 8.91015423 33.77064501 17.37879149 30.49414062 25.91674805 C29.6239876 28.19014504 28.76869668 30.46877765 27.9140625 32.74804688 C21.41869422 49.87433671 21.41869422 49.87433671 15.8125 55 C11.57288845 56.50741744 7.45265614 56.23344022 3 56 C3 53.36 3 50.72 3 48 C5.01822917 47.57682292 7.03645833 47.15364583 9.0546875 46.73046875 C11.37046549 46.07691162 11.37046549 46.07691162 13 43 C13.59752202 37.71674882 12.04074193 33.6549498 10.15625 28.828125 C9.86770142 28.06449646 9.57915283 27.30086792 9.28186035 26.51409912 C8.36383321 24.08909016 7.43262351 21.66942856 6.5 19.25 C5.56970498 16.81547988 4.64222317 14.37993878 3.71813965 11.9430542 C3.1435774 10.43012584 2.56500028 8.91871496 1.98205566 7.40899658 C0 2.22132404 0 2.22132404 0 0 Z " fill="#F6F1EE" transform="translate(806,658)"/>
<path d="M0 0 C14.19 0 28.38 0 43 0 C43 2.97 43 5.94 43 9 C37.72 9 32.44 9 27 9 C27 23.85 27 38.7 27 54 C23.7 54 20.4 54 17 54 C17 39.15 17 24.3 17 9 C11.39 9 5.78 9 0 9 C0 6.03 0 3.06 0 0 Z " fill="#F8EFEB" transform="translate(297,645)"/>
<path d="M0 0 C4.18080103 -0.67963761 7.8521295 -0.96594244 12 0 C15.15464163 3.28019951 17.10288762 6.88513653 19 11 C19.46148437 10.2059375 19.92296875 9.411875 20.3984375 8.59375 C25.66256216 0.35425053 25.66256216 0.35425053 29.7578125 -0.73046875 C32.25437301 -0.69134886 34.55498152 -0.49601809 37 0 C35.94374411 3.0983506 34.61327355 5.6957584 32.765625 8.375 C32.35699219 8.96796875 31.94835937 9.5609375 31.52734375 10.171875 C30.67062405 11.39800594 29.80324809 12.61675484 28.92578125 13.828125 C26.48097563 17.33817411 26.48097563 17.33817411 26.4140625 21.45703125 C28.57600274 24.9235906 30.79894029 28.32872191 33.125 31.6875 C38 38.73140496 38 38.73140496 38 41 C33.79195432 41.74625441 30.16857086 42.05901427 26 41 C22.80549995 37.376388 20.87247204 33.43063806 19 29 C16.64728625 31.84388572 14.68109545 34.57237728 12.9375 37.8125 C11.703125 39.6171875 11.703125 39.6171875 10 41 C6.26513138 41.60137715 2.74906118 41.41364423 -1 41 C-0.56429688 40.33355469 -0.12859375 39.66710937 0.3203125 38.98046875 C4.52626128 32.4712623 8.38158931 25.85244808 12 19 C11.30132812 17.96359375 10.60265625 16.9271875 9.8828125 15.859375 C8.9634187 14.48966587 8.04415466 13.11986962 7.125 11.75 C6.66480469 11.06808594 6.20460938 10.38617187 5.73046875 9.68359375 C5.28574219 9.01972656 4.84101563 8.35585938 4.3828125 7.671875 C3.77010498 6.76066895 3.77010498 6.76066895 3.14501953 5.83105469 C1.96232952 3.93975937 0.96591396 2.00941138 0 0 Z " fill="#F7F1EE" transform="translate(393,658)"/>
<path d="M0 0 C2.73952265 1.50078198 4.18704388 3.34425197 5.796875 5.984375 C6.126875 7.304375 6.456875 8.624375 6.796875 9.984375 C3.826875 9.984375 0.856875 9.984375 -2.203125 9.984375 C-2.533125 8.994375 -2.863125 8.004375 -3.203125 6.984375 C-7.163125 6.984375 -11.123125 6.984375 -15.203125 6.984375 C-13.7774728 12.21604549 -13.7774728 12.21604549 -9.6484375 13.609375 C-8.21444587 14.08648867 -6.77389681 14.54424624 -5.328125 14.984375 C0.18952537 16.68211357 3.54433297 17.88491211 6.796875 22.984375 C8.22991564 25.85045629 8.10331655 27.79738283 7.796875 30.984375 C5.45580503 35.40639606 3.29074162 37.83080457 -1.203125 39.984375 C-4.76171875 40.41796875 -4.76171875 40.41796875 -8.640625 40.421875 C-9.91808594 40.44121094 -11.19554687 40.46054687 -12.51171875 40.48046875 C-17.57353063 39.80020408 -20.62537979 37.66730323 -24.078125 33.984375 C-25.203125 31.984375 -25.203125 31.984375 -25.203125 27.984375 C-22.16952327 27.75102102 -19.22948394 27.62396798 -16.203125 27.984375 C-15.56375 28.644375 -14.924375 29.304375 -14.265625 29.984375 C-11.64324956 32.52728452 -10.52670182 32.25436704 -6.953125 32.234375 C-5.36889653 32.17027327 -3.78492115 32.09304802 -2.203125 31.984375 C-1.78531621 29.61131922 -1.78531621 29.61131922 -2.203125 26.984375 C-5.55162731 24.30803982 -9.18707195 23.27467587 -13.265625 22.109375 C-17.96261059 20.60910933 -20.72193521 19.474147 -23.203125 14.984375 C-24.75336964 11.88388572 -24.49304515 9.40543282 -24.203125 5.984375 C-19.02469255 -3.12966612 -8.85651673 -3.63872393 0 0 Z " fill="#F6EFED" transform="translate(879.203125,659.015625)"/>
<path d="M0 0 C2 2 2 2 2.24954766 3.90681124 C2.24933029 4.69174818 2.24911292 5.47668511 2.24888897 6.28540802 C2.25348777 7.19035617 2.25808656 8.09530433 2.26282471 9.02767515 C2.25768115 10.02824084 2.25253759 11.02880652 2.24723816 12.05969238 C2.24965257 13.11763016 2.25206699 14.17556794 2.25455457 15.26556444 C2.26022007 18.83400554 2.25150694 22.40226988 2.24291992 25.97070312 C2.2439921 28.51944528 2.24592981 31.0681872 2.24867249 33.6169281 C2.25302867 39.83508236 2.24806379 46.05317029 2.23882218 52.27131736 C2.22845389 59.50680999 2.22850796 66.74229104 2.22899476 73.9777897 C2.22949575 86.88445566 2.22032402 99.79109688 2.20581055 112.69775391 C2.1917224 125.23258922 2.18463975 137.76740275 2.18530273 150.30224609 C2.18536267 151.4602095 2.18536267 151.4602095 2.18542381 152.6415661 C2.18546417 153.41218368 2.18550452 154.18280125 2.1855461 154.97677088 C2.18623539 169.23110133 2.18034903 183.48542249 2.17139288 197.73974994 C2.1683723 202.78780906 2.16731282 207.83586647 2.16686058 212.88392639 C2.16610848 219.67342769 2.15977841 226.46290276 2.14969444 233.25239754 C2.14676325 235.75102154 2.14554532 238.24964819 2.14612198 240.74827385 C2.14660952 244.1456433 2.14098816 247.54294726 2.13371277 250.94030762 C2.13603567 252.44115615 2.13603567 252.44115615 2.1384055 253.97232485 C2.13518106 254.877273 2.13195661 255.78222116 2.12863445 256.71459198 C2.12793003 257.49952892 2.1272256 258.28446586 2.12649983 259.09318876 C2 261 2 261 1 263 C0.34 263 -0.32 263 -1 263 C-1.02286949 229.78418743 -1.04049981 196.56837681 -1.05106533 163.35255811 C-1.05231609 159.434583 -1.05361041 155.5166079 -1.05493164 151.59863281 C-1.05519395 150.81860698 -1.05545626 150.03858114 -1.05572652 149.23491816 C-1.06008243 136.5909744 -1.06796955 123.94703517 -1.0771528 111.3030941 C-1.08649151 98.33732245 -1.09205607 85.37155317 -1.09408849 72.40577829 C-1.09546327 64.3998209 -1.0998114 56.39387632 -1.10791647 48.38792287 C-1.11380799 42.25761015 -1.11445841 36.12730727 -1.11310768 29.99699211 C-1.11338402 27.47579176 -1.11538933 24.95459095 -1.11920547 22.43339348 C-1.12414219 19.00527021 -1.12299834 15.57720279 -1.12025452 12.14907837 C-1.12316736 11.13936655 -1.1260802 10.12965472 -1.12908131 9.08934557 C-1.12709026 8.17619723 -1.12509921 7.26304889 -1.12304783 6.32222939 C-1.12361741 5.13408447 -1.12361741 5.13408447 -1.1241985 3.92193663 C-1 2 -1 2 0 0 Z " fill="#F1F8F5" transform="translate(660,334)"/>
<path d="M0 0 C80.52 0 161.04 0 244 0 C244.90130611 2.70391834 245.13330791 4.30192494 245.15821838 7.08122253 C245.17290161 8.32428917 245.17290161 8.32428917 245.18788147 9.59246826 C245.19363693 10.49805481 245.1993924 11.40364136 245.20532227 12.33666992 C245.21522186 13.29295792 245.22512146 14.24924591 245.23532104 15.23451233 C245.26694386 18.39980583 245.29169664 21.56511435 245.31640625 24.73046875 C245.3369751 26.92336928 245.35797155 29.11626583 245.37937927 31.30915833 C245.43460708 37.08442979 245.48401328 42.85973708 245.53222656 48.6350708 C245.58243637 54.52692864 245.63812516 60.41873438 245.69335938 66.31054688 C245.80094964 77.87365342 245.90239273 89.43680518 246 101 C246.33 101 246.66 101 247 101 C247 103.97 247 106.94 247 110 C246.67 110 246.34 110 246 110 C246.00222061 110.57466507 246.00444122 111.14933014 246.00672913 111.7414093 C246.03538672 119.59842273 246.05236298 127.45544175 246.0625 135.3125 C246.06378403 136.30023785 246.06378403 136.30023785 246.06509399 137.30792999 C246.09702927 165.33252014 245.82384118 193.35252683 245.5 221.375 C245.48206327 222.92763235 245.48206327 222.92763235 245.46376419 224.51163101 C245.3150149 237.34115956 245.16034641 250.17061133 245 263 C244.34 263 243.68 263 243 263 C243 176.54 243 90.08 243 1 C162.81 1 82.62 1 0 1 C0 0.67 0 0.34 0 0 Z " fill="#FCFAFA" transform="translate(662,333)"/>
<path d="M0 0 C2.97 0 5.94 0 9 0 C9 18.15 9 36.3 9 55 C6.03 55 3.06 55 0 55 C-0.33 53.68 -0.66 52.36 -1 51 C-1.5775 51.66 -2.155 52.32 -2.75 53 C-7.67990283 56.03378636 -12.35857187 55.87144012 -18 55 C-21.79772081 53.33018501 -23.64355057 50.52892495 -25.9375 47.125 C-28.18319774 41.28879715 -26.65091122 34.09347006 -26 28 C-25.67 28 -25.34 28 -25 28 C-24.8046875 30.05078125 -24.609375 32.1015625 -24.4140625 34.15234375 C-24.27742187 34.76207031 -24.14078125 35.37179687 -24 36 C-23.34 36.33 -22.68 36.66 -22 37 C-21.64820803 39.3306218 -21.31669821 41.66435067 -21 44 C-20.04415562 46.33588323 -20.04415562 46.33588323 -19 48 C-18.34 48 -17.68 48 -17 48 C-16.67 47.34 -16.34 46.68 -16 46 C-15.505 46.185625 -15.01 46.37125 -14.5 46.5625 C-10.84918311 47.20139296 -7.66035276 46.54905291 -4 46 C-1.58883496 40.02716478 0.76286232 34.04027175 3 28 C3.66 28 4.32 28 5 28 C5.33 24.37 5.66 20.74 6 17 C4.02 17.33 2.04 17.66 0 18 C0 12.06 0 6.12 0 0 Z " fill="#F8F5F2" transform="translate(739,644)"/>
<path d="M0 0 C5.98528923 3.33152463 10.57524845 8.53824534 12.75 15.0625 C13.38947697 22.72574037 13.67661848 29.80473391 8.75 36.0625 C3.94241117 41.12100682 -0.42179485 44.62799643 -7.51953125 45.43359375 C-15.13845597 45.57639609 -20.52964098 45.37046104 -26.25 40.0625 C-31.86421066 34.53640475 -34.52863035 29.79686573 -34.625 21.75 C-34.49391969 14.91840283 -33.3240321 10.39523777 -28.671875 5.3515625 C-20.45107592 -2.23971593 -10.39636279 -4.57313371 0 0 Z M-25 9 C-29.4344193 15.03573738 -30.08357692 19.62205418 -29.25 27.0625 C-27.34458136 33.27313481 -23.99923281 36.88857509 -18.390625 40.140625 C-13.85421944 42.09425951 -8.62064095 41.81091054 -3.9609375 40.33984375 C1.20323752 37.95117104 4.40605437 34.97519672 6.82421875 29.734375 C8.61822163 24.55674643 8.86821933 18.84418609 6.8046875 13.7109375 C3.83135899 8.71798962 0.37472781 4.93740927 -5.25 3.0625 C-13.23871262 2.41036019 -19.45458455 2.66925114 -25 9 Z " fill="#F5EFEE" transform="translate(958.25,333.9375)"/>
<path d="M0 0 C0.66 0 1.32 0 2 0 C2 84.48 2 168.96 2 256 C2.66 256 3.32 256 4 256 C4 251.05 4 246.1 4 241 C4.66 240.67 5.32 240.34 6 240 C6 245.28 6 250.56 6 256 C7.65 256.33 9.3 256.66 11 257 C11 257.33 11 257.66 11 258 C7.37 258 3.74 258 0 258 C0 172.86 0 87.72 0 0 Z " fill="#CF0E12" transform="translate(119,336)"/>
<path d="M0 0 C3.3 0 6.6 0 10 0 C10 18.48 10 36.96 10 56 C6.7 56 3.4 56 0 56 C0 37.52 0 19.04 0 0 Z " fill="#F6F3ED" transform="translate(662,643)"/>
<path d="M0 0 C3.3 0 6.6 0 10 0 C10.33 1.32 10.66 2.64 11 4 C11.680625 3.34 12.36125 2.68 13.0625 2 C16.64457375 -0.43885872 18.75519536 -0.33292585 23 0 C23 2.97 23 5.94 23 9 C20.75390625 9.390625 18.5078125 9.78125 16.26171875 10.171875 C13.33001735 11.24531316 12.59469654 12.33022715 11 15 C10.49815261 17.89560969 10.49815261 17.89560969 10.48828125 21.078125 C10.45283203 22.23828125 10.41738281 23.3984375 10.38085938 24.59375 C10.34702148 26.40359375 10.34702148 26.40359375 10.3125 28.25 C10.27833984 29.47203125 10.24417969 30.6940625 10.20898438 31.953125 C10.12652838 34.96865846 10.05736799 37.98390194 10 41 C6.7 41 3.4 41 0 41 C0 27.47 0 13.94 0 0 Z " fill="#F8E9E6" transform="translate(239,658)"/>
<path d="M0 0 C84.48 0 168.96 0 256 0 C255.67 1.98 255.34 3.96 255 6 C254.67 4.68 254.34 3.36 254 2 C170.51 2 87.02 2 1 2 C0.67 1.34 0.34 0.68 0 0 Z " fill="#FBC7C8" transform="translate(384,327)"/>
<path d="M0 0 C0.66 0.33 1.32 0.66 2 1 C2 11.23 2 21.46 2 32 C-1.3 32 -4.6 32 -8 32 C-8 30.68 -8 29.36 -8 28 C-8.928125 28.66 -9.85625 29.32 -10.8125 30 C-15.6707374 32.77048161 -20.55198414 32.83362221 -26 32 C-29.25204941 30.20805441 -30.50298243 28.87569763 -32.3125 25.6875 C-33.15595373 22.39036267 -33.13289884 19.38892043 -33 16 C-32.34 16 -31.68 16 -31 16 C-30.67 18.64 -30.34 21.28 -30 24 C-28.95994298 20.61981469 -28.91995518 17.5219721 -29 14 C-28.34 14 -27.68 14 -27 14 C-26.855625 14.7425 -26.71125 15.485 -26.5625 16.25 C-26.06940976 18.91958229 -26.06940976 18.91958229 -25.3125 21.125 C-25 23 -25 23 -27 26 C-27.66 26 -28.32 26 -29 26 C-29 26.66 -29 27.32 -29 28 C-27.02 27.67 -25.04 27.34 -23 27 C-23.03480469 26.39671875 -23.06960938 25.7934375 -23.10546875 25.171875 C-23.13253906 24.37265625 -23.15960938 23.5734375 -23.1875 22.75 C-23.23970703 21.56664062 -23.23970703 21.56664062 -23.29296875 20.359375 C-22.91594589 17.32308421 -22.25914958 16.07088711 -20 14 C-17.08203125 13.609375 -17.08203125 13.609375 -13.8125 13.75 C-12.72582031 13.78609375 -11.63914062 13.8221875 -10.51953125 13.859375 C-9.68808594 13.90578125 -8.85664063 13.9521875 -8 14 C-8 16.97 -8 19.94 -8 23 C-7.01 22.34 -6.02 21.68 -5 21 C-4.01 21 -3.02 21 -2 21 C-1.97494385 20.39937744 -1.9498877 19.79875488 -1.92407227 19.17993164 C-1.8084472 16.47388563 -1.68557064 13.76821717 -1.5625 11.0625 C-1.52318359 10.11697266 -1.48386719 9.17144531 -1.44335938 8.19726562 C-1.40146484 7.29814453 -1.35957031 6.39902344 -1.31640625 5.47265625 C-1.27974854 4.64000244 -1.24309082 3.80734863 -1.20532227 2.94946289 C-1 1 -1 1 0 0 Z " fill="#F6F3F0" transform="translate(378,667)"/>
<path d="M0 0 C2.31 0 4.62 0 7 0 C7 21.78 7 43.56 7 66 C4.69 66 2.38 66 0 66 C0 44.22 0 22.44 0 0 Z " fill="#F7E5E3" transform="translate(500,641)"/>
<path d="M0 0 C3.3 0 6.6 0 10 0 C10 13.53 10 27.06 10 41 C6.7 41 3.4 41 0 41 C0 27.47 0 13.94 0 0 Z " fill="#F7F8F8" transform="translate(444,658)"/>
<path d="M0 0 C3.3 0 6.6 0 10 0 C10 13.53 10 27.06 10 41 C6.7 41 3.4 41 0 41 C0 27.47 0 13.94 0 0 Z " fill="#F3E5E1" transform="translate(688,658)"/>
<path d="M0 0 C2.87202765 2.76490051 3.91208186 4.40187975 4.49609375 8.375 C4.47675781 9.57125 4.45742187 10.7675 4.4375 12 C4.43621094 13.19625 4.43492187 14.3925 4.43359375 15.625 C3.93627576 19.49601567 2.78292403 22.21707597 0 25 C-1.92578125 25.2734375 -1.92578125 25.2734375 -4.3125 25.375 C-5.48232422 25.44847656 -5.48232422 25.44847656 -6.67578125 25.5234375 C-9 25 -9 25 -11.26171875 22.9453125 C-13.44689425 19.24279042 -13.53423762 16.77970284 -13.5 12.5 C-13.5103125 11.2109375 -13.520625 9.921875 -13.53125 8.59375 C-12.9289652 4.51947048 -11.88015591 2.88015591 -9 0 C-5.77839187 -1.61080407 -3.42436421 -0.82657067 0 0 Z " fill="#BC1518" transform="translate(211,666)"/>
<path d="M0 0 C2.9807682 2.83226017 3.92533953 4.49494387 4.53125 8.59375 C4.5209375 9.8828125 4.510625 11.171875 4.5 12.5 C4.5103125 13.7890625 4.520625 15.078125 4.53125 16.40625 C3.92325124 20.5191828 3.05154257 22.20760056 0 25 C-2.25390625 25.59375 -2.25390625 25.59375 -4.5625 25.5 C-5.32691406 25.4896875 -6.09132813 25.479375 -6.87890625 25.46875 C-9.48192489 24.89349726 -10.37955751 24.08835141 -12 22 C-13.14544249 18.56367253 -13.2397802 15.74568045 -13.3125 12.125 C-13.34988281 10.91070313 -13.38726563 9.69640625 -13.42578125 8.4453125 C-12.92772309 4.41515381 -11.83027718 2.84603011 -9 0 C-5.77839187 -1.61080407 -3.42436421 -0.82657067 0 0 Z " fill="#BE1316" transform="translate(634,666)"/>
<path d="M0 0 C4.09606732 0.85334736 5.41643256 2.36109313 8 5.625 C8.45249081 8.53046731 8.61667785 10.75048201 8.5 13.625 C8.50386719 14.67300781 8.50386719 14.67300781 8.5078125 15.7421875 C8.42458164 20.1534231 7.83227823 23.19781402 5 26.625 C3.1328125 27.5078125 3.1328125 27.5078125 1.125 27.75 C0.46757813 27.85570312 -0.18984375 27.96140625 -0.8671875 28.0703125 C-4.46789888 27.31851562 -5.82282028 25.51050874 -8 22.625 C-8.70856583 19.76535305 -8.70099678 17.05847579 -8.625 14.125 C-8.64433594 13.37863281 -8.66367187 12.63226562 -8.68359375 11.86328125 C-8.64647032 7.66833378 -8.32645398 6.04038829 -5.6484375 2.6328125 C-3 0.625 -3 0.625 0 0 Z " fill="#BE1518" transform="translate(730,664.375)"/>
<path d="M0 0 C3.6196875 -0.0928125 3.6196875 -0.0928125 7.3125 -0.1875 C8.44619019 -0.22846802 8.44619019 -0.22846802 9.6027832 -0.27026367 C12.46703415 -0.30593735 14.51469798 -0.31128934 16.9609375 1.2578125 C18.89245364 4.49636964 18.29370153 7.29936076 18 11 C17.34 11.66 16.68 12.32 16 13 C16.43762807 16.17280351 17.77361505 19.05667611 19 22 C16.25 22.375 16.25 22.375 13 22 C10.875 19.0625 10.875 19.0625 9 16 C6.87880872 15.04768403 6.87880872 15.04768403 5 15 C5 17.31 5 19.62 5 22 C3.35 22 1.7 22 0 22 C0 14.74 0 7.48 0 0 Z " fill="#F6F7F5" transform="translate(938,346)"/>
<path d="M0 0 C3.72260092 3.11482935 6.37363169 5.96502516 8.0625 10.5625 C8.26501421 14.02549305 8.00092987 17.21895516 7.0625 20.5625 C6.4025 21.2225 5.7425 21.8825 5.0625 22.5625 C4.7325 21.5725 4.4025 20.5825 4.0625 19.5625 C3.0725 22.2025 2.0825 24.8425 1.0625 27.5625 C-0.9175 25.9125 -2.8975 24.2625 -4.9375 22.5625 C-4.0625 18.6875 -4.0625 18.6875 -2.9375 17.5625 C-2.70831758 13.54592857 -2.70831758 13.54592857 -2.9375 9.5625 C-5.87197357 6.62802643 -9.12009456 7.10091577 -13.0625 6.9375 C-13.81660156 6.89882813 -14.57070313 6.86015625 -15.34765625 6.8203125 C-17.21053184 6.72598969 -19.07398255 6.64315338 -20.9375 6.5625 C-20.5625 4.625 -20.5625 4.625 -19.9375 2.5625 C-17.29291621 1.24020811 -15.25988699 1.46572806 -12.3125 1.5 C-10.80816406 1.51353516 -10.80816406 1.51353516 -9.2734375 1.52734375 C-8.50257813 1.53894531 -7.73171875 1.55054688 -6.9375 1.5625 C-6.9375 0.9025 -6.9375 0.2425 -6.9375 -0.4375 C-3.9468584 -1.81779612 -3.01205646 -1.47398507 0 0 Z " fill="#B91316" transform="translate(957.9375,339.4375)"/>
<path d="M0 0 C2.97 0 5.94 0 9 0 C9.02468716 6.92341857 9.04285389 13.8468116 9.05493164 20.77026367 C9.05996575 23.126388 9.06679346 25.4825092 9.07543945 27.83862305 C9.0875453 31.2218503 9.09323749 34.60503632 9.09765625 37.98828125 C9.10281754 39.04461258 9.10797882 40.10094391 9.11329651 41.18928528 C9.11337204 42.17007553 9.11344757 43.15086578 9.11352539 44.16137695 C9.115746 45.02519485 9.11796661 45.88901276 9.12025452 46.77900696 C9 49 9 49 8 52 C7.01 52 6.02 52 5 52 C4.67 40.78 4.34 29.56 4 18 C3.34 18.99 2.68 19.98 2 21 C1.34 21 0.68 21 0 21 C0 14.07 0 7.14 0 0 Z " fill="#F4F7F5" transform="translate(587,645)"/>
<path d="M0 0 C3.3 0 6.6 0 10 0 C10 18.48 10 36.96 10 56 C6.7 56 3.4 56 0 56 C0 37.52 0 19.04 0 0 Z M2 2 C2 19.16 2 36.32 2 54 C3.98 54 5.96 54 8 54 C8 36.84 8 19.68 8 2 C6.02 2 4.04 2 2 2 Z " fill="#F3E1E0" transform="translate(662,643)"/>
<path d="M0 0 C0.33 0 0.66 0 1 0 C1 15.84 1 31.68 1 48 C2.98 48 4.96 48 7 48 C6.99476318 47.3387915 6.98952637 46.67758301 6.98413086 45.99633789 C6.96342344 43.01840149 6.95035988 40.04048018 6.9375 37.0625 C6.92912109 36.02158203 6.92074219 34.98066406 6.91210938 33.90820312 C6.90888672 32.91884766 6.90566406 31.92949219 6.90234375 30.91015625 C6.89710693 29.99371338 6.89187012 29.07727051 6.88647461 28.13305664 C7 26 7 26 8 25 C9.4887186 24.91330568 10.981445 24.89296506 12.47265625 24.90234375 C13.37177734 24.90556641 14.27089844 24.90878906 15.19726562 24.91210938 C16.14279297 24.92048828 17.08832031 24.92886719 18.0625 24.9375 C19.01189453 24.94201172 19.96128906 24.94652344 20.93945312 24.95117188 C23.29303065 24.9629989 25.64648477 24.97947975 28 25 C28 23.35 28 21.7 28 20 C21.07 20 14.14 20 7 20 C7 14.72 7 9.44 7 4 C15.25 4 23.5 4 32 4 C32 4.33 32 4.66 32 5 C24.08 5 16.16 5 8 5 C8 9.29 8 13.58 8 18 C15.26 18 22.52 18 30 18 C30 20.97 30 23.94 30 27 C22.74 27 15.48 27 8 27 C8 34.59 8 42.18 8 50 C4.7 50 1.4 50 -2 50 C-2 45.71 -2 41.42 -2 37 C-1.67 37 -1.34 37 -1 37 C-0.67 24.79 -0.34 12.58 0 0 Z " fill="#FCF0EE" transform="translate(144,649)"/>
<path d="M0 0 C-0.375 1.9375 -0.375 1.9375 -1 4 C-1.99 4.495 -1.99 4.495 -3 5 C-4.13350534 7.01669827 -4.13350534 7.01669827 -5 9 C-5 8.34 -5 7.68 -5 7 C-6.43655854 6.91868537 -7.8744483 6.86066441 -9.3125 6.8125 C-10.11300781 6.77769531 -10.91351562 6.74289062 -11.73828125 6.70703125 C-14.08106189 6.77335988 -14.08106189 6.77335988 -15.46875 8.5 C-17 10 -17 10 -19.48046875 10.29296875 C-20.37378906 10.25816406 -21.26710938 10.22335937 -22.1875 10.1875 C-23.08855469 10.16042969 -23.98960937 10.13335938 -24.91796875 10.10546875 C-25.60503906 10.07066406 -26.29210937 10.03585937 -27 10 C-25.75749216 5.02996862 -24.2997891 2.79986267 -20 0 C-13.72271756 -3.48737914 -6.44255412 -2.64309913 0 0 Z " fill="#F5EFED" transform="translate(790,659)"/>
<path d="M0 0 C0.33 0 0.66 0 1 0 C1 17.82 1 35.64 1 54 C-2.63 54 -6.26 54 -10 54 C-10 46.08 -10 38.16 -10 30 C-8.68 30 -7.36 30 -6 30 C-5.67 29.34 -5.34 28.68 -5 28 C-4 29 -4 29 -3.88647461 31.22485352 C-3.89171143 32.18319092 -3.89694824 33.14152832 -3.90234375 34.12890625 C-3.90717773 35.68061523 -3.90717773 35.68061523 -3.91210938 37.26367188 C-3.92048828 38.35228516 -3.92886719 39.44089844 -3.9375 40.5625 C-3.94201172 41.65498047 -3.94652344 42.74746094 -3.95117188 43.87304688 C-3.96300174 46.58208495 -3.97948457 49.29101599 -4 52 C-3.01 52 -2.02 52 -1 52 C-0.67 34.84 -0.34 17.68 0 0 Z " fill="#F2C7C4" transform="translate(596,645)"/>
<path d="M0 0 C0.33 0 0.66 0 1 0 C1 2.97 1 5.94 1 9 C0.67 9 0.34 9 0 9 C0 6.03 0 3.06 0 0 Z M-2 -1 C-1.67 -1 -1.34 -1 -1 -1 C0.09107958 9.88208314 0.0118548 20.60181774 -0.296875 31.51831055 C-0.37611968 34.35254616 -0.44262154 37.18689398 -0.5078125 40.02148438 C-0.55394695 41.82293578 -0.60079442 43.62436911 -0.6484375 45.42578125 C-0.66828705 46.27352615 -0.6881366 47.12127106 -0.70858765 47.9947052 C-0.88456414 53.88456414 -0.88456414 53.88456414 -2 55 C-3.83115883 55.09851171 -5.66619933 55.12972629 -7.5 55.125 C-8.5003125 55.12757813 -9.500625 55.13015625 -10.53125 55.1328125 C-13 55 -13 55 -14 54 C-14.101137 50.98191937 -14.13968909 47.98719487 -14.1328125 44.96875 C-14.13376923 44.06249878 -14.13472595 43.15624756 -14.13571167 42.22253418 C-14.13639353 40.30248953 -14.13453882 38.38244259 -14.13037109 36.46240234 C-14.12502292 33.51264296 -14.13031588 30.56303586 -14.13671875 27.61328125 C-14.13605797 25.75260383 -14.13477681 23.8919265 -14.1328125 22.03125 C-14.13483673 21.14272339 -14.13686096 20.25419678 -14.13894653 19.33874512 C-14.11494988 13.11494988 -14.11494988 13.11494988 -13 12 C-11.31816052 11.76712992 -9.6287584 11.58735834 -7.9375 11.4375 C-7.01839844 11.35371094 -6.09929688 11.26992188 -5.15234375 11.18359375 C-4.44207031 11.12300781 -3.73179687 11.06242188 -3 11 C-5.97 10.67 -8.94 10.34 -12 10 C-12 9.34 -12 8.68 -12 8 C-8.7 8 -5.4 8 -2 8 C-2 5.03 -2 2.06 -2 -1 Z M-12 13 C-12 26.53 -12 40.06 -12 54 C-8.7 54 -5.4 54 -2 54 C-2 40.47 -2 26.94 -2 13 C-5.3 13 -8.6 13 -12 13 Z " fill="#AA0608" transform="translate(700,645)"/>
<path d="M0 0 C3 3 3 3 3.36076355 4.9172821 C3.35410172 5.63898087 3.34743988 6.36067963 3.34057617 7.10424805 C3.34034958 7.92487228 3.34012299 8.74549652 3.33988953 9.59098816 C3.32440567 10.47232925 3.30892181 11.35367035 3.29296875 12.26171875 C3.28872391 13.16751175 3.28447906 14.07330475 3.28010559 15.00654602 C3.26330848 17.90049933 3.2256545 20.79375706 3.1875 23.6875 C3.17245449 25.64907849 3.15876585 27.61066789 3.14648438 29.57226562 C3.11340157 34.38177856 3.06161222 39.19077133 3 44 C4.65 44 6.3 44 8 44 C8 29.48 8 14.96 8 0 C8.33 0 8.66 0 9 0 C9 15.18 9 30.36 9 46 C6.03 46 3.06 46 0 46 C0 30.82 0 15.64 0 0 Z " fill="#F2FAF8" transform="translate(314,653)"/>
<path d="M0 0 C3.3 0 6.6 0 10 0 C9.34 0.66 8.68 1.32 8 2 C7.82474945 4.79684797 7.76856811 7.4932808 7.8046875 10.2890625 C7.8075174 11.10748627 7.81034729 11.92591003 7.81326294 12.76913452 C7.82447468 15.38790393 7.84958071 18.00633364 7.875 20.625 C7.88502853 22.39843257 7.8941546 24.17187049 7.90234375 25.9453125 C7.92441722 30.29700626 7.95895356 34.6484455 8 39 C7.01 39 6.02 39 5 39 C5 26.79 5 14.58 5 2 C4.01 2 3.02 2 2 2 C1.67 14.87 1.34 27.74 1 41 C0.67 41 0.34 41 0 41 C0 27.47 0 13.94 0 0 Z " fill="#F3DDDA" transform="translate(444,658)"/>
<path d="M0 0 C3.3 0 6.6 0 10 0 C10 0.33 10 0.66 10 1 C7.03 1 4.06 1 1 1 C1.33 6.61 1.66 12.22 2 18 C2.99 17.67 3.98 17.34 5 17 C5.66 17.33 6.32 17.66 7 18 C7 21.96 7 25.92 7 30 C6.01 30 5.02 30 4 30 C3.01 33.3 2.02 36.6 1 40 C0.67 40 0.34 40 0 40 C-0.02578125 39.10796875 -0.0515625 38.2159375 -0.078125 37.296875 C-0.13484375 36.12640625 -0.1915625 34.9559375 -0.25 33.75 C-0.29640625 32.58984375 -0.3428125 31.4296875 -0.390625 30.234375 C-1.09596287 26.4906586 -2.01078827 25.28586779 -5 23 C-7.64184541 22.20318682 -7.64184541 22.20318682 -10 22 C-10 21.34 -10 20.68 -10 20 C-6.7 20 -3.4 20 0 20 C0 13.4 0 6.8 0 0 Z " fill="#F7EFEB" transform="translate(738,643)"/>
<path d="M0 0 C0 2.97 0 5.94 0 9 C-2.1346875 9.37125 -2.1346875 9.37125 -4.3125 9.75 C-8.0016664 10.57732391 -8.0016664 10.57732391 -11 12.8125 C-13.37677945 18.01170504 -13.29195871 23.69322432 -13.5625 29.3125 C-13.60568359 30.14845703 -13.64886719 30.98441406 -13.69335938 31.84570312 C-13.79885307 33.89696935 -13.89987315 35.9484648 -14 38 C-14.33 38 -14.66 38 -15 38 C-15 29.09 -15 20.18 -15 11 C-14.34 11 -13.68 11 -13 11 C-13.66 9.68 -14.32 8.36 -15 7 C-14.01 6.67 -13.02 6.34 -12 6 C-11.3162955 4.67532254 -10.65035814 3.34136367 -10 2 C-6.3558226 -0.4294516 -4.28758728 -0.16179575 0 0 Z " fill="#F9F7F5" transform="translate(262,658)"/>
<path d="M0 0 C0.99128906 -0.00257813 1.98257813 -0.00515625 3.00390625 -0.0078125 C5.4375 0.125 5.4375 0.125 6.4375 1.125 C6.3125 4.5 6.3125 4.5 5.4375 8.125 C2.53176416 10.77434738 0.66796078 11.10156331 -3.25 11.5 C-4.343125 11.37625 -5.43625 11.2525 -6.5625 11.125 C-8.5625 8.125 -8.5625 8.125 -8.3125 4.5 C-8.065 3.38625 -7.8175 2.2725 -7.5625 1.125 C-4.93920316 -0.18664842 -2.92551375 -0.00762846 0 0 Z " fill="#BB1A1D" transform="translate(780.5625,680.875)"/>
<path d="M0 0 C1.09054687 0.02320313 2.18109375 0.04640625 3.3046875 0.0703125 C4.40039062 0.08835937 5.49609375 0.10640625 6.625 0.125 C7.46804688 0.14820313 8.31109375 0.17140625 9.1796875 0.1953125 C9.4921875 3.4453125 9.4921875 3.4453125 9.1796875 7.1953125 C6.38382266 10.4995164 4.80687072 11.13153116 0.4921875 11.5703125 C-2.8203125 11.1953125 -2.8203125 11.1953125 -4.8203125 9.1953125 C-5.0703125 5.6953125 -5.0703125 5.6953125 -4.8203125 2.1953125 C-2.8203125 0.1953125 -2.8203125 0.1953125 0 0 Z " fill="#B61215" transform="translate(360.8203125,680.8046875)"/>
<path d="M0 0 C6.7114321 -0.41946451 12.05413723 0.79060292 17.5 4.875 C19.38544744 7.54605054 19.470214 8.78687101 19 12 C18 14.8125 18 14.8125 17 17 C16.34 17 15.68 17 15 17 C15 16.01 15 15.02 15 14 C14.34 14 13.68 14 13 14 C13 17.3 13 20.6 13 24 C12.67 24 12.34 24 12 24 C11.98582031 23.34773437 11.97164062 22.69546875 11.95703125 22.0234375 C11.60699095 15.60918559 10.61719783 12.49880814 6 8 C6.99 6.68 7.98 5.36 9 4 C8.01 3.67 7.02 3.34 6 3 C6 2.67 6 2.34 6 2 C3.03 1.505 3.03 1.505 0 1 C0 0.67 0 0.34 0 0 Z " fill="#F7F0EF" transform="translate(626,657)"/>
<path d="M0 0 C3.6196875 -0.0928125 3.6196875 -0.0928125 7.3125 -0.1875 C8.44619019 -0.22846802 8.44619019 -0.22846802 9.6027832 -0.27026367 C12.46487434 -0.30591045 14.51801617 -0.30602148 16.96875 1.25 C18.83268814 4.41304653 18.17676458 7.40578687 18 11 C17.01 11.495 17.01 11.495 16 12 C15.34 11.67 14.68 11.34 14 11 C14.33 9.35 14.66 7.7 15 6 C14.34 6 13.68 6 13 6 C12.67 7.32 12.34 8.64 12 10 C9.69 10 7.38 10 5 10 C5 8.35 5 6.7 5 5 C7.31 4.01 9.62 3.02 12 2 C8.7 1.67 5.4 1.34 2 1 C2.99 1.66 3.98 2.32 5 3 C3.02 3.99 3.02 3.99 1 5 C1 10.28 1 15.56 1 21 C0.67 21 0.34 21 0 21 C0 14.07 0 7.14 0 0 Z " fill="#F7EEEF" transform="translate(938,346)"/>
<path d="M0 0 C3.3 0 6.6 0 10 0 C10 7.26 10 14.52 10 22 C8 19 8 19 7 16 C7.33 15.67 7.66 15.34 8 15 C8.07258946 12.81360547 8.08373783 10.62499611 8.0625 8.4375 C8.05347656 7.23996094 8.04445313 6.04242187 8.03515625 4.80859375 C8.02355469 3.88175781 8.01195312 2.95492187 8 2 C5.03 1.505 5.03 1.505 2 1 C2 15.85 2 30.7 2 46 C1.34 45.67 0.68 45.34 0 45 C0 30.15 0 15.3 0 0 Z " fill="#FCF9FA" transform="translate(555,645)"/>
<path d="M0 0 C0.66 0.66 1.32 1.32 2 2 C1.75 4.5625 1.75 4.5625 1 7 C-2.18535682 8.59267841 -5.54056258 8.52900854 -9 8 C-10.33333333 6.66666667 -11.66666667 5.33333333 -13 4 C-15.98641181 3.348514 -18.95006073 3.13033928 -22 3 C-22 2.67 -22 2.34 -22 2 C-21.28972656 2.01160156 -20.57945312 2.02320313 -19.84765625 2.03515625 C-18.92855469 2.04417969 -18.00945313 2.05320312 -17.0625 2.0625 C-15.68771484 2.07990234 -15.68771484 2.07990234 -14.28515625 2.09765625 C-12.03406673 2.25949049 -12.03406673 2.25949049 -11 1 C-11.99 1 -12.98 1 -14 1 C-14 0.34 -14 -0.32 -14 -1 C-8.63312553 -1.92532319 -5.1092249 -2.31131602 0 0 Z " fill="#BF1B1E" transform="translate(876,684)"/>
<path d="M0 0 C0.33 0 0.66 0 1 0 C1 6.93 1 13.86 1 21 C1.66 21 2.32 21 3 21 C3.86419223 18.40742331 4.17580932 16.65962293 4.31640625 13.98828125 C4.35830078 13.23095703 4.40019531 12.47363281 4.44335938 11.69335938 C4.48267578 10.90767578 4.52199219 10.12199219 4.5625 9.3125 C4.60568359 8.51521484 4.64886719 7.71792969 4.69335938 6.89648438 C4.79927368 4.93118553 4.90012551 2.96561504 5 1 C5.33 1 5.66 1 6 1 C6 10.24 6 19.48 6 29 C5.01 29.33 4.02 29.66 3 30 C2.01 29.34 1.02 28.68 0 28 C0.33 27.34 0.66 26.68 1 26 C-0.65 26 -2.3 26 -4 26 C-4 25.34 -4 24.68 -4 24 C-2.68 24 -1.36 24 0 24 C0 23.34 0 22.68 0 22 C-6.93 22 -13.86 22 -21 22 C-21 21.67 -21 21.34 -21 21 C-14.07 21 -7.14 21 0 21 C0 14.07 0 7.14 0 0 Z " fill="#F3E1DD" transform="translate(586,645)"/>
<path d="M0 0 C0.48210938 0.48597656 0.96421875 0.97195313 1.4609375 1.47265625 C3.49403267 3.490271 4.87112547 3.48341489 7.6875 3.6875 C8.49574219 3.75324219 9.30398438 3.81898438 10.13671875 3.88671875 C10.75160156 3.92410156 11.36648438 3.96148438 12 4 C12 4.33 12 4.66 12 5 C8.7 5 5.4 5 2 5 C3.17938001 8.53814003 3.79172537 8.67980861 6.9375 10.375 C9.86538833 12.09821156 10.85805207 12.73384763 12.5 15.8125 C12.7475 16.8953125 12.7475 16.8953125 13 18 C12.13375 17.113125 11.2675 16.22625 10.375 15.3125 C5.86028561 11.37492435 0.61242217 9.86368401 -4.98828125 8.078125 C-8 7 -8 7 -10 5 C-10 3.68 -10 2.36 -10 1 C-6.88450128 -0.55774936 -3.3955612 -0.56480622 0 0 Z " fill="#9D1112" transform="translate(874,665)"/>
<path d="M0 0 C8.25 0 16.5 0 25 0 C25 0.33 25 0.66 25 1 C17.08 1 9.16 1 1 1 C1 5.29 1 9.58 1 14 C8.26 14 15.52 14 23 14 C23 16.97 23 19.94 23 23 C15.74 22.67 8.48 22.34 1 22 C1 21.67 1 21.34 1 21 C7.6 21 14.2 21 21 21 C21 19.35 21 17.7 21 16 C14.07 16 7.14 16 0 16 C0 10.72 0 5.44 0 0 Z " fill="#F5DAD9" transform="translate(151,653)"/>
<path d="M0 0 C1.875 0.25 1.875 0.25 4 1 C4.2784375 1.66 4.556875 2.32 4.84375 3 C5.81692416 5.22003286 5.81692416 5.22003286 8.1640625 5.609375 C8.97617187 5.65578125 9.78828125 5.7021875 10.625 5.75 C11.85089844 5.83507812 11.85089844 5.83507812 13.1015625 5.921875 C13.72804688 5.94765625 14.35453125 5.9734375 15 6 C11.9584759 9.50945088 9.56404252 11.05274589 5 12 C0.69100597 12 -2.84762729 11.70266629 -6.5625 9.4375 C-7.036875 8.963125 -7.51125 8.48875 -8 8 C-4.535 7.505 -4.535 7.505 -1 7 C-0.67 4.69 -0.34 2.38 0 0 Z " fill="#D01318" transform="translate(945,362)"/>
<path d="M0 0 C0 7.59 0 15.18 0 23 C-0.99 23.33 -1.98 23.66 -3 24 C-6.53155185 18.55552423 -6.70533755 13.29307662 -6 7 C-3.85467626 0 -3.85467626 0 0 0 Z " fill="#C4181D" transform="translate(936,345)"/>
<path d="M0 0 C6.93 0 13.86 0 21 0 C21 7.92 21 15.84 21 24 C20.67 24 20.34 24 20 24 C20 16.74 20 9.48 20 2 C14.06 2 8.12 2 2 2 C2 9.26 2 16.52 2 24 C1.34 24 0.68 24 0 24 C0 16.08 0 8.16 0 0 Z " fill="#9A1011" transform="translate(565,675)"/>
<path d="M0 0 C0.66 0 1.32 0 2 0 C2.144375 0.7425 2.28875 1.485 2.4375 2.25 C2.93059024 4.91958229 2.93059024 4.91958229 3.6875 7.125 C4 9 4 9 2 12 C1.34 12 0.68 12 0 12 C0 12.66 0 13.32 0 14 C1.98 13.67 3.96 13.34 6 13 C6 10.03 6 7.06 6 4 C6.33 4 6.66 4 7 4 C7.33623796 5.2909136 7.66889249 6.58276097 8 7.875 C8.185625 8.59429688 8.37125 9.31359375 8.5625 10.0546875 C9 12 9 12 9 14 C10.98 14 12.96 14 15 14 C15 14.33 15 14.66 15 15 C9.375 16.125 9.375 16.125 6 15 C6 15.99 6 16.98 6 18 C1.74257863 17.52695318 -0.25705098 15.1136178 -3 12 C-4.1577506 8.52674819 -4.06866652 5.63932552 -4 2 C-3.34 2 -2.68 2 -2 2 C-1.67 4.64 -1.34 7.28 -1 10 C0.04005702 6.61981469 0.08004482 3.5219721 0 0 Z " fill="#F7E5E3" transform="translate(349,681)"/>
<path d="M0 0 C0.33 0.99 0.66 1.98 1 3 C3.00016466 4.20882096 3.00016466 4.20882096 5 5 C5 6.65 5 8.3 5 10 C4.01 9.01 3.02 8.02 2 7 C2 7.99 2 8.98 2 10 C0.02 9.01 -1.96 8.02 -4 7 C-4 7.33 -4 7.66 -4 8 C-8.62 8 -13.24 8 -18 8 C-17.67 6.68 -17.34 5.36 -17 4 C-14.35541621 2.67770811 -12.32238699 2.90322806 -9.375 2.9375 C-7.87066406 2.95103516 -7.87066406 2.95103516 -6.3359375 2.96484375 C-5.56507813 2.97644531 -4.79421875 2.98804688 -4 3 C-4 2.34 -4 1.68 -4 1 C-2.68 0.67 -1.36 0.34 0 0 Z " fill="#CB2226" transform="translate(955,338)"/>
<path d="M0 0 C3 8.75 3 8.75 3 11 C3.99 10.67 4.98 10.34 6 10 C6.66 12.97 7.32 15.94 8 19 C3.9219338 15.36280582 1.75888021 12.18406797 0 7 C-0.04548114 5.33395401 -0.05419507 3.6657853 0 2 C-0.62753174 2.03029297 -1.25506348 2.06058594 -1.90161133 2.09179688 C-15.61210932 2.74116922 -29.27418606 3.14567491 -43 3 C-43 2.67 -43 2.34 -43 2 C-38.80518873 1.70995788 -34.61004875 1.42539808 -30.41455078 1.14550781 C-28.99290393 1.0499403 -27.57134995 0.95297891 -26.14990234 0.85449219 C-17.42518403 0.25108894 -8.75113379 -0.14980543 0 0 Z " fill="#A51112" transform="translate(211,501)"/>
<path d="M0 0 C0.99 0.66 1.98 1.32 3 2 C3.56737589 9.14893617 3.56737589 9.14893617 1 13 C-0.9453125 13.29296875 -0.9453125 13.29296875 -3.125 13.1875 C-4.40375 13.125625 -5.6825 13.06375 -7 13 C-7.33 14.65 -7.66 16.3 -8 18 C-8.66 16.68 -9.32 15.36 -10 14 C-10.33 15.98 -10.66 17.96 -11 20 C-11.66 19.34 -12.32 18.68 -13 18 C-12.91744637 14.20253283 -12.42606724 12.4761928 -9.875 9.625 C-6.3565648 7.63631924 -3.98002315 7.68784132 0 8 C0 5.36 0 2.72 0 0 Z " fill="#C01E21" transform="translate(262,659)"/>
<path d="M0 0 C0.66 0.33 1.32 0.66 2 1 C2 11.23 2 21.46 2 32 C-1.3 32 -4.6 32 -8 32 C-8 30.68 -8 29.36 -8 28 C-9.98 28.99 -9.98 28.99 -12 30 C-11.505 28.515 -11.505 28.515 -11 27 C-8.9375 26.3125 -8.9375 26.3125 -7 26 C-6.67 27.32 -6.34 28.64 -6 30 C-4.02 30 -2.04 30 0 30 C0 20.1 0 10.2 0 0 Z " fill="#F9EAEA" transform="translate(378,667)"/>
<path d="M0 0 C2.64 0 5.28 0 8 0 C8 0.33 8 0.66 8 1 C5.69 1 3.38 1 1 1 C1.33 12.88 1.66 24.76 2 37 C3.98 37.33 5.96 37.66 8 38 C8 29.09 8 20.18 8 11 C8.33 11 8.66 11 9 11 C9 20.57 9 30.14 9 40 C6.03 40 3.06 40 0 40 C0 26.8 0 13.6 0 0 Z " fill="#F8FBFA" transform="translate(688,659)"/>
<path d="M0 0 C7.24539726 -0.53449652 11.72912263 0.28392452 18 4 C18 7.25811062 17.4477922 9.10441559 16 12 C15.01 12.33 14.02 12.66 13 13 C11.35 11.35 9.7 9.7 8 8 C8.66 8 9.32 8 10 8 C10.66 6.02 11.32 4.04 12 2 C7.71 2 3.42 2 -1 2 C-0.67 1.34 -0.34 0.68 0 0 Z " fill="#F6E5E2" transform="translate(358,657)"/>
<path d="M0 0 C0.75042068 0.00424484 1.50084137 0.00848969 2.27400208 0.01286316 C4.66871151 0.02964425 7.06257659 0.06729385 9.45703125 0.10546875 C11.08136805 0.1205164 12.70571805 0.13420466 14.33007812 0.14648438 C18.31022073 0.1795457 22.28973288 0.23132281 26.26953125 0.29296875 C21.42149428 2.94855604 16.73863826 2.72472541 11.2890625 2.94921875 C9.79439453 3.119375 9.79439453 3.119375 8.26953125 3.29296875 C7.93953125 3.95296875 7.60953125 4.61296875 7.26953125 5.29296875 C1.32953125 5.29296875 -4.61046875 5.29296875 -10.73046875 5.29296875 C-10.73046875 3.29296875 -10.73046875 3.29296875 -9.71362305 1.6862793 C-6.68062652 -0.44462199 -3.56831931 -0.07587129 0 0 Z " fill="#AA0F11" transform="translate(234.73046875,565.70703125)"/>
<path d="M0 0 C0 0.66 0 1.32 0 2 C0.99 2.33 1.98 2.66 3 3 C3 3.66 3 4.32 3 5 C10.26 5.33 17.52 5.66 25 6 C25 6.33 25 6.66 25 7 C12.2641754 7.35560213 0.46132124 6.71179011 -12 4 C-12 3.01 -12 2.02 -12 1 C-7.95858806 0.36605303 -4.0934693 -0.12404452 0 0 Z " fill="#F4DBDA" transform="translate(229,560)"/>
<path d="M0 0 C0.33 0 0.66 0 1 0 C1 3.63 1 7.26 1 11 C1.66 11.33 2.32 11.66 3 12 C2.67 12.66 2.34 13.32 2 14 C1.88295036 15.35752296 1.82322811 16.72025888 1.79467773 18.08251953 C1.77473251 18.92324005 1.75478729 19.76396057 1.73423767 20.63015747 C1.70916893 21.99272171 1.70916893 21.99272171 1.68359375 23.3828125 C1.66281265 24.31221649 1.64203156 25.24162048 1.62062073 26.19918823 C1.55512354 29.1743821 1.49623948 32.14966577 1.4375 35.125 C1.39431494 37.13933228 1.35070066 39.15365541 1.30664062 41.16796875 C1.19944197 46.11188663 1.09817499 51.05589503 1 56 C0.67 56 0.34 56 0 56 C0 42.47 0 28.94 0 15 C-3.3 15 -6.6 15 -10 15 C-10 14.67 -10 14.34 -10 14 C-7.36 13.67 -4.72 13.34 -2 13 C-4.31 12.67 -6.62 12.34 -9 12 C-9 11.67 -9 11.34 -9 11 C-6.03 11 -3.06 11 0 11 C0 7.37 0 3.74 0 0 Z " fill="#890000" transform="translate(454,643)"/>
<path d="M0 0 C2.97 0 5.94 0 9 0 C9 2.97 9 5.94 9 9 C6.03 9 3.06 9 0 9 C0 6.03 0 3.06 0 0 Z " fill="#F6F6F6" transform="translate(445,644)"/>
<path d="M0 0 C2.97 0 5.94 0 9 0 C9 2.97 9 5.94 9 9 C6.03 9 3.06 9 0 9 C0 6.03 0 3.06 0 0 Z " fill="#F7F7F5" transform="translate(688,644)"/>
<path d="M0 0 C0.33 0 0.66 0 1 0 C1 6.93 1 13.86 1 21 C-4.94 21 -10.88 21 -17 21 C-17 14.73 -17 8.46 -17 2 C-16.67 2 -16.34 2 -16 2 C-16 6.29 -16 10.58 -16 15 C-14.35 15 -12.7 15 -11 15 C-11 15.66 -11 16.32 -11 17 C-12.32 17 -13.64 17 -15 17 C-15 17.66 -15 18.32 -15 19 C-14.16855469 18.98839844 -13.33710937 18.97679687 -12.48046875 18.96484375 C-11.39378906 18.95582031 -10.30710937 18.94679688 -9.1875 18.9375 C-8.10855469 18.92589844 -7.02960937 18.91429687 -5.91796875 18.90234375 C-3 19 -3 19 0 20 C0 13.4 0 6.8 0 0 Z " fill="#D71217" transform="translate(584,644)"/>
<path d="M0 0 C0.99 0 1.98 0 3 0 C2.67 12.21 2.34 24.42 2 37 C1.34 37 0.68 37 0 37 C0 24.79 0 12.58 0 0 Z " fill="#F5F1ED" transform="translate(446,660)"/>
<path d="M0 0 C0.33 0 0.66 0 1 0 C1.08636719 0.67546875 1.17273438 1.3509375 1.26171875 2.046875 C1.9104865 6.16565743 2.43404313 9.23321972 4.9375 12.625 C9.58828527 14.71310767 13.98491071 14.65610943 19 14 C21.97984167 12.66829691 21.97984167 12.66829691 24 11 C24.66 11 25.32 11 26 11 C26 12.32 26 13.64 26 15 C29.3 15 32.6 15 36 15 C36 15.33 36 15.66 36 16 C29.565 16.495 29.565 16.495 23 17 C23 16.34 23 15.68 23 15 C22.154375 15.33 21.30875 15.66 20.4375 16 C15.38776568 17.46901362 11.66557709 17.6726369 6.75 15.6875 C3.02978815 13.40464273 1.38828792 12.16486377 0 8 C-0.12781786 5.32605036 -0.04391871 2.67904143 0 0 Z " fill="#A21819" transform="translate(761,684)"/>
<path d="M0 0 C3.6875 0.3125 3.6875 0.3125 6.125 1.9375 C8.08394605 4.915098 8.00535906 6.81605037 7.6875 10.3125 C7.0275 10.3125 6.3675 10.3125 5.6875 10.3125 C5.3575 9.3225 5.0275 8.3325 4.6875 7.3125 C1.3875 7.3125 -1.9125 7.3125 -5.3125 7.3125 C-4.6525 6.9825 -3.9925 6.6525 -3.3125 6.3125 C-3.5909375 5.1059375 -3.5909375 5.1059375 -3.875 3.875 C-4.019375 3.029375 -4.16375 2.18375 -4.3125 1.3125 C-3.3125 0.3125 -3.3125 0.3125 0 0 Z " fill="#B61F20" transform="translate(779.3125,664.6875)"/>
<path d="M0 0 C3.73584906 1.47169811 3.73584906 1.47169811 5 4 C1.7 4 -1.6 4 -5 4 C-5.33 4.99 -5.66 5.98 -6 7 C-7.62332967 8.38576923 -9.28724465 9.72641268 -11 11 C-13.57781906 8.42218094 -13.62129616 6.5598161 -14 3 C-12.28132657 1.28132657 -9.90786781 1.67079401 -7.5625 1.5 C-3.63565085 1.28580817 -3.63565085 1.28580817 0 0 Z " fill="#F9F3F0" transform="translate(733,659)"/>
<path d="M0 0 C0.54914062 0.6496875 0.54914062 0.6496875 1.109375 1.3125 C4.86804572 5.17856131 7.6225348 6.47595986 13.0625 6.625 C18.25503909 6.37742599 21.13673898 5.43400979 25 2 C25 3.65 25 5.3 25 7 C27.97 7 30.94 7 34 7 C34 7.33 34 7.66 34 8 C30.04 8 26.08 8 22 8 C22 8.99 22 9.98 22 11 C21.01 10.67 20.02 10.34 19 10 C19.33 9.34 19.66 8.68 20 8 C19.01 8.33 18.02 8.66 17 9 C10.48960926 9.42691087 6.37961083 8.70368866 1.125 4.5 C0 3 0 3 0 0 Z " fill="#A31819" transform="translate(714,692)"/>
<path d="M0 0 C3.82524236 1.450954 5.19090966 3.38181932 7 7 C7 7.66 7 8.32 7 9 C4.03 9 1.06 9 -2 9 C-2.66 7.35 -3.32 5.7 -4 4 C-2.68 2.68 -1.36 1.36 0 0 Z " fill="#F7F3F1" transform="translate(879,660)"/>
<path d="M0 0 C3.3 0 6.6 0 10 0 C10 0.33 10 0.66 10 1 C7.03 1 4.06 1 1 1 C1.33 6.61 1.66 12.22 2 18 C3.32 18 4.64 18 6 18 C4 20 4 20 2 20.9375 C-0.32131409 21.96786859 -0.32131409 21.96786859 -2 25 C-2.99 24.34 -3.98 23.68 -5 23 C-6.65549531 22.61500109 -8.3222433 22.27206865 -10 22 C-10 21.34 -10 20.68 -10 20 C-6.7 20 -3.4 20 0 20 C0 13.4 0 6.8 0 0 Z " fill="#EDD1CE" transform="translate(738,643)"/>
<path d="M0 0 C-1.65 0.33 -3.3 0.66 -5 1 C-5 1.66 -5 2.32 -5 3 C-4.01 3.33 -3.02 3.66 -2 4 C-8.80122845 7.13902852 -14.56621057 7.33452052 -22 7 C-22 6.34 -22 5.68 -22 5 C-17.545 4.505 -17.545 4.505 -13 4 C-13 3.01 -13 2.02 -13 1 C-11.58622218 0.63447197 -10.16879424 0.28304505 -8.75 -0.0625 C-7.96109375 -0.25972656 -7.1721875 -0.45695313 -6.359375 -0.66015625 C-3.89605178 -1.01497267 -2.34395868 -0.76877544 0 0 Z " fill="#B6191C" transform="translate(274,564)"/>
<path d="M0 0 C3.95827235 -0.05785647 7.9164367 -0.09354717 11.875 -0.125 C13.00292969 -0.14175781 14.13085938 -0.15851562 15.29296875 -0.17578125 C16.36933594 -0.18222656 17.44570312 -0.18867187 18.5546875 -0.1953125 C19.54968262 -0.20578613 20.54467773 -0.21625977 21.56982422 -0.22705078 C24 0 24 0 26 2 C21.85534837 3.16177152 17.83794638 3.14690664 13.5625 3.125 C12.81162109 3.12886719 12.06074219 3.13273438 11.28710938 3.13671875 C7.39135683 3.12986606 3.8045066 2.95301756 0 2 C0 1.34 0 0.68 0 0 Z " fill="#EEF9F6" transform="translate(232,563)"/>
<path d="M0 0 C5.03539677 -0.02477487 10.07075781 -0.04289549 15.10620117 -0.05493164 C16.81812152 -0.05995099 18.53003761 -0.06676785 20.24194336 -0.07543945 C22.70687922 -0.08761021 25.17175825 -0.09325238 27.63671875 -0.09765625 C28.77919319 -0.10539818 28.77919319 -0.10539818 29.94474792 -0.11329651 C33.75849825 -0.11369638 37.29315771 0.07409039 41 1 C41 1.33 41 1.66 41 2 C40.31599121 1.98952637 39.63198242 1.97905273 38.92724609 1.96826172 C21.72557593 1.64958642 21.72557593 1.64958642 4.671875 3.5625 C2.0616632 3.9899031 -0.36067079 4.07706071 -3 4 C-2.01 3.67 -1.02 3.34 0 3 C0 2.01 0 1.02 0 0 Z " fill="#960909" transform="translate(218,363)"/>
<path d="M0 0 C2.375 1.625 2.375 1.625 4 4 C4 5.98 4 7.96 4 10 C-1.94 10 -7.88 10 -14 10 C-11 7 -11 7 -7.86328125 6.70703125 C-6.69152344 6.74183594 -5.51976562 6.77664063 -4.3125 6.8125 C-2.54326172 6.85310547 -2.54326172 6.85310547 -0.73828125 6.89453125 C0.61716797 6.94673828 0.61716797 6.94673828 2 7 C1.67 5.68 1.34 4.36 1 3 C-0.918125 2.9690625 -0.918125 2.9690625 -2.875 2.9375 C-3.59429687 2.92589844 -4.31359375 2.91429687 -5.0546875 2.90234375 C-7.08185404 2.87350758 -7.08185404 2.87350758 -9 4 C-8.67 3.01 -8.34 2.02 -8 1 C-5.15916359 -0.42041821 -3.14522722 -0.31452272 0 0 Z " fill="#A60C0D" transform="translate(366,665)"/>
<path d="M0 0 C2.475 0.495 2.475 0.495 5 1 C5 1.66 5 2.32 5 3 C5.99 3.33 6.98 3.66 8 4 C9.25 5.875 9.25 5.875 10 8 C9.67 8.99 9.34 9.98 9 11 C8.84854901 13.2825699 8.75113021 15.56887706 8.68359375 17.85546875 C8.66281265 18.51710526 8.64203156 19.17874176 8.62062073 19.86042786 C8.55535273 21.96934852 8.49634656 24.07839135 8.4375 26.1875 C8.39429311 27.61915315 8.35067812 29.05079404 8.30664062 30.48242188 C8.19969494 33.98815154 8.09836359 37.49401786 8 41 C7.67 41 7.34 41 7 41 C6.97812622 39.58521362 6.97812622 39.58521362 6.95581055 38.1418457 C6.89460394 34.62841339 6.82042492 31.11574554 6.73754883 27.6027832 C6.70438084 26.08498379 6.67632368 24.56706344 6.65356445 23.04907227 C6.61986722 20.86161981 6.56754796 18.67526736 6.51171875 16.48828125 C6.48553467 15.17384033 6.45935059 13.85939941 6.43237305 12.50512695 C5.78840581 7.28466532 3.15783375 4.06007197 0 0 Z " fill="#C63839" transform="translate(789,658)"/>
<path d="M0 0 C8.72617961 0.03620821 17.48407408 0.21501484 26.015625 2.265625 C26.345625 2.925625 26.675625 3.585625 27.015625 4.265625 C25.20320448 4.29249779 23.39067267 4.31196215 21.578125 4.328125 C20.56878906 4.33972656 19.55945313 4.35132813 18.51953125 4.36328125 C16.015625 4.265625 16.015625 4.265625 15.015625 3.265625 C13.52923508 3.10907473 12.03613373 3.01495557 10.54296875 2.94921875 C9.19428711 2.88637695 9.19428711 2.88637695 7.81835938 2.82226562 C6.87283203 2.78294922 5.92730469 2.74363281 4.953125 2.703125 C4.00373047 2.65994141 3.05433594 2.61675781 2.07617188 2.57226562 C-0.27718853 2.46583224 -2.63065854 2.36381492 -4.984375 2.265625 C-2.984375 0.265625 -2.984375 0.265625 0 0 Z " fill="#EFD9D8" transform="translate(236.984375,363.734375)"/>
<path d="M0 0 C1.65 0.33 3.3 0.66 5 1 C5.12375 1.721875 5.2475 2.44375 5.375 3.1875 C5.9904931 5.95721894 6.88444374 8.3970354 8 11 C5.25 11.375 5.25 11.375 2 11 C-0.1875 8.125 -0.1875 8.125 -2 5 C-2.99 4.34 -3.98 3.68 -5 3 C-3.35 2.34 -1.7 1.68 0 1 C0 0.67 0 0.34 0 0 Z " fill="#F5EAEA" transform="translate(949,357)"/>
<path d="M0 0 C1.485 0.99 1.485 0.99 3 2 C4.99593196 2.32521054 4.99593196 2.32521054 7.19604492 2.31884766 C8.45701241 2.34865219 8.45701241 2.34865219 9.74345398 2.37905884 C10.64666885 2.39061005 11.54988373 2.40216125 12.48046875 2.4140625 C13.40845779 2.43342865 14.33644684 2.4527948 15.29255676 2.4727478 C18.25744425 2.53254244 21.22237057 2.57892855 24.1875 2.625 C26.19728259 2.66317988 28.20704881 2.70223162 30.21679688 2.7421875 C35.14439842 2.83824393 40.07207658 2.92227549 45 3 C45 3.33 45 3.66 45 4 C30.81 4 16.62 4 2 4 C2 7.3 2 10.6 2 14 C1.67 14 1.34 14 1 14 C0.67 9.38 0.34 4.76 0 0 Z " fill="#A60406" transform="translate(295,640)"/>
<path d="M0 0 C1.22589844 0.01353516 1.22589844 0.01353516 2.4765625 0.02734375 C3.41628906 0.04474609 3.41628906 0.04474609 4.375 0.0625 C1.38853231 2.05347846 -1.22187262 3.00374926 -4.625 4.0625 C-4.625 5.3825 -4.625 6.7025 -4.625 8.0625 C-2.315 8.0625 -0.005 8.0625 2.375 8.0625 C2.705 8.7225 3.035 9.3825 3.375 10.0625 C0.33199684 11.58400158 -2.279085 11.30149393 -5.625 11.0625 C-7.625 8.0625 -7.625 8.0625 -7.375 4.4375 C-7.1275 3.32375 -6.88 2.21 -6.625 1.0625 C-4.21954362 -0.14022819 -2.67503047 -0.03821472 0 0 Z " fill="#B10F10" transform="translate(779.625,680.9375)"/>
<path d="M0 0 C0.99 0.66 1.98 1.32 3 2 C-0.30941377 4.20627585 -1.574407 4.23871721 -5.4375 4.375 C-9.92055944 4.6681274 -9.92055944 4.6681274 -13.6875 7.0625 C-14.120625 7.701875 -14.55375 8.34125 -15 9 C-15.33 8.01 -15.66 7.02 -16 6 C-10.53586858 1.26441944 -7.53049275 -0.40341925 0 0 Z " fill="#F1E4E2" transform="translate(731,657)"/>
<path d="M0 0 C4.62 0 9.24 0 14 0 C13 4 13 4 12 5 C10.15400312 5.39454223 8.29774178 5.74176866 6.4375 6.0625 C5.42558594 6.23910156 4.41367187 6.41570313 3.37109375 6.59765625 C2.58863281 6.73042969 1.80617188 6.86320313 1 7 C1.20625 6.21625 1.4125 5.4325 1.625 4.625 C1.74875 3.75875 1.8725 2.8925 2 2 C1.34 1.34 0.68 0.68 0 0 Z " fill="#F1E9E6" transform="translate(354,674)"/>
<path d="M0 0 C0.99 0 1.98 0 3 0 C3.08089542 2.77141717 3.14044062 5.54047819 3.1875 8.3125 C3.21263672 9.09818359 3.23777344 9.88386719 3.26367188 10.69335938 C3.27333984 11.45068359 3.28300781 12.20800781 3.29296875 12.98828125 C3.3086792 13.68477783 3.32438965 14.38127441 3.34057617 15.09887695 C3 17 3 17 0 20 C0 13.4 0 6.8 0 0 Z " fill="#F7F0EC" transform="translate(588,646)"/>
<path d="M0 0 C1 3 1 3 0.375 5.5 C-1.30022623 8.54586587 -2.96238449 9.40525186 -6 11 C-6.66 11.66 -7.32 12.32 -8 13 C-10.55867474 13.4657363 -13.04687908 13.83484248 -15.625 14.125 C-16.33140625 14.21136719 -17.0378125 14.29773438 -17.765625 14.38671875 C-19.50950141 14.59881183 -21.2546484 14.80040991 -23 15 C-23.33 14.01 -23.66 13.02 -24 12 C-23.11957031 11.96261719 -22.23914063 11.92523437 -21.33203125 11.88671875 C-19.58986328 11.78810547 -19.58986328 11.78810547 -17.8125 11.6875 C-16.08966797 11.60048828 -16.08966797 11.60048828 -14.33203125 11.51171875 C-10.83391577 10.97449351 -8.9146557 9.93102411 -6 8 C-5.34 8 -4.68 8 -4 8 C-3.566875 7.13375 -3.566875 7.13375 -3.125 6.25 C-1.5625 3.125 -1.5625 3.125 0 0 Z " fill="#A81718" transform="translate(224,687)"/>
<path d="M0 0 C1.51400391 0.01740234 1.51400391 0.01740234 3.05859375 0.03515625 C4.07050781 0.04417969 5.08242188 0.05320312 6.125 0.0625 C7.29869141 0.07990234 7.29869141 0.07990234 8.49609375 0.09765625 C8.49609375 0.42765625 8.49609375 0.75765625 8.49609375 1.09765625 C7.75359375 1.15953125 7.01109375 1.22140625 6.24609375 1.28515625 C2.67751985 2.33950763 1.57364147 4.09675398 -0.50390625 7.09765625 C-3.84640254 6.50078191 -5.96826967 5.36161748 -8.50390625 3.09765625 C-8.50390625 2.43765625 -8.50390625 1.77765625 -8.50390625 1.09765625 C-7.29734375 1.12859375 -7.29734375 1.12859375 -6.06640625 1.16015625 C-3.05975097 1.08682319 -2.98370507 0.11636915 0 0 Z " fill="#F5E6E3" transform="translate(623.50390625,690.90234375)"/>
<path d="M0 0 C0.99 0.99 1.98 1.98 3 3 C2.01 3 1.02 3 0 3 C0 3.66 0 4.32 0 5 C-2.31 5 -4.62 5 -7 5 C-6.85691406 5.88751953 -6.85691406 5.88751953 -6.7109375 6.79296875 C-6.05845515 11.44380225 -5.65462721 14.72314374 -8 19 C-8.33 19 -8.66 19 -9 19 C-9.02685095 16.52076199 -9.04676547 14.0418116 -9.0625 11.5625 C-9.07506836 10.50192383 -9.07506836 10.50192383 -9.08789062 9.41992188 C-9.09653588 7.61306441 -9.05220011 5.80612397 -9 4 C-8 3 -8 3 -4.4375 2.9375 C-3.303125 2.958125 -2.16875 2.97875 -1 3 C-0.67 2.01 -0.34 1.02 0 0 Z " fill="#BE1B1E" transform="translate(734,666)"/>
<path d="M0 0 C0.33 0 0.66 0 1 0 C1.4485551 8.17367067 1.40744316 13.97563746 -3 21 C-4.32 20.67 -5.64 20.34 -7 20 C-7.33 20.66 -7.66 21.32 -8 22 C-8 18.48283697 -7.17554415 17.62878252 -5 15 C-4.67 15.99 -4.34 16.98 -4 18 C-2.3044365 15.35068203 -2 13.89386825 -2 10.6875 C-2 6.62767003 -1.24995545 3.82798857 0 0 Z " fill="#FAEBEB" transform="translate(970,349)"/>
<path d="M0 0 C0.99 0.66 1.98 1.32 3 2 C2.34 4.31 1.68 6.62 1 9 C0.34 9 -0.32 9 -1 9 C-1 8.01 -1 7.02 -1 6 C-1.66 6 -2.32 6 -3 6 C-3 9.3 -3 12.6 -3 16 C-3.33 16 -3.66 16 -4 16 C-4.06058594 15.31292969 -4.12117187 14.62585938 -4.18359375 13.91796875 C-4.26738281 13.01691406 -4.35117187 12.11585938 -4.4375 11.1875 C-4.51871094 10.29417969 -4.59992187 9.40085937 -4.68359375 8.48046875 C-4.93489767 5.87256441 -4.93489767 5.87256441 -6 3 C-5.195625 2.690625 -4.39125 2.38125 -3.5625 2.0625 C-1.10919595 1.23664655 -1.10919595 1.23664655 0 0 Z " fill="#EFE0DE" transform="translate(642,665)"/>
<path d="M0 0 C0.66 0.33 1.32 0.66 2 1 C2 5.95 2 10.9 2 16 C1.01 16 0.02 16 -1 16 C-1.02685095 13.52076199 -1.04676547 11.0418116 -1.0625 8.5625 C-1.07506836 7.50192383 -1.07506836 7.50192383 -1.08789062 6.41992188 C-1.09653588 4.61306441 -1.05220011 2.80612397 -1 1 C-0.67 0.67 -0.34 0.34 0 0 Z " fill="#F3F6F4" transform="translate(646,670)"/>
<path d="M0 0 C0.33 0.66 0.66 1.32 1 2 C-1.97 2 -4.94 2 -8 2 C-5.69 2.33 -3.38 2.66 -1 3 C-1 3.66 -1 4.32 -1 5 C-1.92232422 5.09087891 -1.92232422 5.09087891 -2.86328125 5.18359375 C-3.67152344 5.26738281 -4.47976563 5.35117187 -5.3125 5.4375 C-6.11300781 5.51871094 -6.91351562 5.59992187 -7.73828125 5.68359375 C-10.16087179 5.95265693 -10.16087179 5.95265693 -13 7 C-12.10845646 4.25107408 -11.25590275 2.28433639 -9.3125 0.125 C-5.93825 -1.51652703 -3.5675676 -0.87506375 0 0 Z " fill="#AB191C" transform="translate(634,666)"/>
<path d="M0 0 C4.95 0 9.9 0 15 0 C15 0.33 15 0.66 15 1 C14.35933594 0.94457031 13.71867187 0.88914062 13.05859375 0.83203125 C10.04595257 0.80958236 7.85365735 0.98941597 5 2 C2.03690372 5.35366257 -0.01212701 9.00450693 -2 13 C-2.66 12.67 -3.32 12.34 -4 12 C-4 11.34 -4 10.68 -4 10 C-3.34 9.67 -2.68 9.34 -2 9 C-1.31270746 6.88153715 -1.31270746 6.88153715 -0.875 4.4375 C-0.58625 2.973125 -0.2975 1.50875 0 0 Z " fill="#970E0E" transform="translate(415,657)"/>
<path d="M0 0 C3.3 0 6.6 0 10 0 C10.33 0.99 10.66 1.98 11 3 C16.445 2.505 16.445 2.505 22 2 C21.67 3.32 21.34 4.64 21 6 C15.71052632 6.35263158 15.71052632 6.35263158 13 6 C11.66666667 4.66666667 10.33333333 3.33333333 9 2 C6.01358819 1.348514 3.04993927 1.13033928 0 1 C0 0.67 0 0.34 0 0 Z " fill="#A90B0D" transform="translate(854,686)"/>
<path d="M0 0 C0.66 0.33 1.32 0.66 2 1 C2.05384521 3.29141286 2.09272087 5.58318188 2.125 7.875 C2.14820313 9.15117188 2.17140625 10.42734375 2.1953125 11.7421875 C2 15 2 15 0 17 C-1 16 -1 16 -1.1328125 12.91015625 C-1.12894531 11.00556641 -1.12894531 11.00556641 -1.125 9.0625 C-1.12757813 7.79535156 -1.13015625 6.52820313 -1.1328125 5.22265625 C-1 2 -1 2 0 0 Z " fill="#EFF8F6" transform="translate(189,670)"/>
<path d="M0 0 C4.29 0 8.58 0 13 0 C13.33 1.32 13.66 2.64 14 4 C11.04335481 5.4783226 8.25770263 5.06032783 5 5 C5 4.34 5 3.68 5 3 C2.525 2.01 2.525 2.01 0 1 C0 0.67 0 0.34 0 0 Z " fill="#F3EDE9" transform="translate(771,674)"/>
<path d="M0 0 C5.03564599 1.52019502 9.57366021 3.63613593 14.25 6 C15.32894531 6.53367187 15.32894531 6.53367187 16.4296875 7.078125 C21.74647556 9.74647556 21.74647556 9.74647556 24 12 C21.40321849 11.56720308 19.30814759 11.17333302 17 9.875 C14.35022223 8.71572222 12.73062678 9.24149256 10 10 C10 8.68 10 7.36 10 6 C9.278125 5.71125 8.55625 5.4225 7.8125 5.125 C5.20833333 4.08333333 2.60416667 3.04166667 0 2 C0 1.34 0 0.68 0 0 Z " fill="#A71819" transform="translate(193,465)"/>
<path d="M0 0 C3.0625 0.125 3.0625 0.125 5.0625 1.125 C5.0625 1.785 5.0625 2.445 5.0625 3.125 C4.4025 3.125 3.7425 3.125 3.0625 3.125 C2.7325 4.115 2.4025 5.105 2.0625 6.125 C0.0825 6.125 -1.8975 6.125 -3.9375 6.125 C-3.980221 4.45888095 -3.97813832 2.79117115 -3.9375 1.125 C-2.9375 0.125 -2.9375 0.125 0 0 Z " fill="#C81619" transform="translate(869.9375,665.875)"/>
<path d="M0 0 C5.07283639 -0.20705455 9.20867943 0.27512459 14 2 C14.33 2.66 14.66 3.32 15 4 C15.66 4 16.32 4 17 4 C16.67 4.99 16.34 5.98 16 7 C10.53262809 5.25192871 5.24175152 3.34205919 0 1 C0 0.67 0 0.34 0 0 Z " fill="#F4EBE9" transform="translate(206,471)"/>
<path d="M0 0 C2.5625 0.1875 2.5625 0.1875 4.5625 2.1875 C4.1875 4.3125 4.1875 4.3125 3.5625 6.1875 C1.2525 6.1875 -1.0575 6.1875 -3.4375 6.1875 C-3.480221 4.52138095 -3.47813832 2.85367115 -3.4375 1.1875 C-2.4375 0.1875 -2.4375 0.1875 0 0 Z " fill="#AC1A1B" transform="translate(946.4375,349.8125)"/>
<path d="M0 0 C17.52873563 -0.63103448 17.52873563 -0.63103448 25 3 C25.99 3.99 26.98 4.98 28 6 C24.7 5.34 21.4 4.68 18 4 C18 3.34 18 2.68 18 2 C12.06 1.67 6.12 1.34 0 1 C0 0.67 0 0.34 0 0 Z " fill="#A1181A" transform="translate(234,401)"/>
<path d="M0 0 C1.27847309 3.61233001 0.71332411 6.04606751 -0.3125 9.6875 C-0.70888672 11.14736328 -0.70888672 11.14736328 -1.11328125 12.63671875 C-2 15 -2 15 -4 16 C-6.42857143 8.57142857 -6.42857143 8.57142857 -5 5 C-5 5.66 -5 6.32 -5 7 C-3.68 6.67 -2.36 6.34 -1 6 C-0.67 4.02 -0.34 2.04 0 0 Z " fill="#A61214" transform="translate(829,672)"/>
<path d="M0 0 C0.33 0 0.66 0 1 0 C1 3.63 1 7.26 1 11 C1.66 11.33 2.32 11.66 3 12 C2.01 13.485 2.01 13.485 1 15 C-1.6015625 15.29296875 -1.6015625 15.29296875 -4.625 15.1875 C-6.12933594 15.14689453 -6.12933594 15.14689453 -7.6640625 15.10546875 C-8.43492187 15.07066406 -9.20578125 15.03585937 -10 15 C-10 14.67 -10 14.34 -10 14 C-7.36 13.67 -4.72 13.34 -2 13 C-4.31 12.67 -6.62 12.34 -9 12 C-9 11.67 -9 11.34 -9 11 C-6.03 11 -3.06 11 0 11 C0 7.37 0 3.74 0 0 Z " fill="#A00608" transform="translate(454,643)"/>
<path d="M0 0 C-0.33 0.66 -0.66 1.32 -1 2 C1.97 2.495 1.97 2.495 5 3 C5 3.33 5 3.66 5 4 C0.05 4 -4.9 4 -10 4 C-9.01 3.67 -8.02 3.34 -7 3 C-7 2.01 -7 1.02 -7 0 C-3.98968256 -0.93423645 -3.13349732 -1.04449911 0 0 Z " fill="#F8EBEA" transform="translate(873,695)"/>
<path d="M0 0 C1.44052734 0.03867187 1.44052734 0.03867187 2.91015625 0.078125 C6.5635246 0.2992367 10.13115428 0.70375914 13.75 1.25 C14.41 3.23 15.07 5.21 15.75 7.25 C14.6775 6.610625 13.605 5.97125 12.5 5.3125 C5.47613579 1.344928 -1.45375655 1.69075131 -9.25 3.25 C-6.10652942 0.45906817 -4.17745345 -0.11935581 0 0 Z " fill="#A20A0B" transform="translate(205.25,655.75)"/>
<path d="M0 0 C2.50037734 2.17424117 3.43628586 3.73045798 4 7 C5.65 7 7.3 7 9 7 C8.67 7.66 8.34 8.32 8 9 C4.35346727 10.11421833 1.66708957 9.94296589 -2 9 C-1.67 7.02 -1.34 5.04 -1 3 C-0.34 3.33 0.32 3.66 1 4 C0.67 2.68 0.34 1.36 0 0 Z " fill="#B4171B" transform="translate(947,362)"/>
<path d="M0 0 C0.33 0.66 0.66 1.32 1 2 C4.3 2 7.6 2 11 2 C11 2.33 11 2.66 11 3 C8.36 3 5.72 3 3 3 C2.67 4.65 2.34 6.3 2 8 C1.34 6.68 0.68 5.36 0 4 C-0.33 5.98 -0.66 7.96 -1 10 C-1.66 9.34 -2.32 8.68 -3 8 C-2.54545455 2.54545455 -2.54545455 2.54545455 0 0 Z " fill="#B21B1F" transform="translate(252,669)"/>
<path d="M0 0 C0.33 0 0.66 0 1 0 C1 5.28 1 10.56 1 16 C0.34 16 -0.32 16 -1 16 C-2.77641602 10.44869995 -2.53883587 5.23634898 0 0 Z " fill="#CD1317" transform="translate(932,347)"/>
<path d="M0 0 C-0.33 0.99 -0.66 1.98 -1 3 C-1 2.34 -1 1.68 -1 1 C-1.99 1 -2.98 1 -4 1 C-4 1.66 -4 2.32 -4 3 C-7.63 3 -11.26 3 -15 3 C-15 2.34 -15 1.68 -15 1 C-13.0641649 0.63684334 -11.12624752 0.28477269 -9.1875 -0.0625 C-8.10855469 -0.25972656 -7.02960937 -0.45695312 -5.91796875 -0.66015625 C-3 -1 -3 -1 0 0 Z " fill="#C71216" transform="translate(955,338)"/>
<path d="M0 0 C0.53625 0.5775 1.0725 1.155 1.625 1.75 C3.9814565 4.13414102 3.9814565 4.13414102 7.125 5.9375 C10.20578863 8.14763097 11.00381551 9.41373583 12 13 C11.0925 12.0925 10.185 11.185 9.25 10.25 C4.51010803 6.12580533 -1.04220905 4.66309436 -7 3 C-4.66785852 1.79371992 -2.50357861 0.8345262 0 0 Z " fill="#A41A1B" transform="translate(875,670)"/>
<path d="M0 0 C3.96 0 7.92 0 12 0 C12 0.66 12 1.32 12 2 C8.98509443 3.00496852 6.95818308 3.10335303 3.8125 3.0625 C2.46091797 3.04896484 2.46091797 3.04896484 1.08203125 3.03515625 C0.39496094 3.02355469 -0.29210937 3.01195312 -1 3 C-0.67 2.01 -0.34 1.02 0 0 Z " fill="#F0FAF6" transform="translate(299,419)"/>
<path d="M0 0 C-0.76183594 0.30292969 -1.52367187 0.60585938 -2.30859375 0.91796875 C-8.80708034 3.55468303 -14.96784598 6.42031264 -21 10 C-20.67 9.01 -20.34 8.02 -20 7 C-19.34 7 -18.68 7 -18 7 C-18 6.01 -18 5.02 -18 4 C-17.40832031 3.80664062 -16.81664062 3.61328125 -16.20703125 3.4140625 C-15.41683594 3.15367187 -14.62664062 2.89328125 -13.8125 2.625 C-12.99007812 2.35429687 -12.16765625 2.08359375 -11.3203125 1.8046875 C-8.8893918 0.99816296 -8.8893918 0.99816296 -6.1875 -0.25 C-3.6314119 -1.12637306 -2.53450389 -0.74387955 0 0 Z " fill="#A51919" transform="translate(213,369)"/>
<path d="M0 0 C0.33 0 0.66 0 1 0 C1.05441656 1.89551022 1.09298035 3.7914792 1.125 5.6875 C1.14820313 6.74324219 1.17140625 7.79898437 1.1953125 8.88671875 C0.99858729 12.02251859 0.33057654 14.17645373 -1 17 C-3 15.25 -3 15.25 -5 13 C-5 11.68 -5 10.36 -5 9 C-4.34 9 -3.68 9 -3 9 C-2.67 9.99 -2.34 10.98 -2 12 C-0.85110867 8.06094403 -0.47417305 4.06434042 0 0 Z " fill="#CF1216" transform="translate(960,350)"/>
<path d="M0 0 C-0.33 0.99 -0.66 1.98 -1 3 C0.32 3.33 1.64 3.66 3 4 C2.67 4.33 2.34 4.66 2 5 C-0.69082872 4.82364548 -3.32851446 4.38164079 -6 4 C-6 3.34 -6 2.68 -6 2 C-6.66 1.34 -7.32 0.68 -8 0 C-4.71023192 -1.09658936 -3.28696233 -0.79953138 0 0 Z " fill="#F7F7F5" transform="translate(878,693)"/>
<path d="M0 0 C0.66 0 1.32 0 2 0 C2.33 0.66 2.66 1.32 3 2 C3.66 1.67 4.32 1.34 5 1 C4.67 4.3 4.34 7.6 4 11 C0.91910327 8.22719294 -0.68775452 5.93673644 -2 2 C-1.34 2 -0.68 2 0 2 C0 1.34 0 0.68 0 0 Z " fill="#B3171A" transform="translate(427,686)"/>
<path d="M0 0 C3.3 0 6.6 0 10 0 C10 2 10 2 8.4375 4.125 C5.19346756 6.62040957 2.9901641 6.3069357 -1 6 C-0.01 5.34 0.98 4.68 2 4 C2 3.34 2 2.68 2 2 C1.34 1.34 0.68 0.68 0 0 Z " fill="#F8F9F8" transform="translate(867,658)"/>
<path d="M0 0 C0 2.97 0 5.94 0 9 C-5.28 9 -10.56 9 -16 9 C-16 8.67 -16 8.34 -16 8 C-11.71 8 -7.42 8 -3 8 C-3 5.69 -3 3.38 -3 1 C-1 0 -1 0 0 0 Z " fill="#F6E9E8" transform="translate(340,645)"/>
<path d="M0 0 C0.33 0 0.66 0 1 0 C1 8.91 1 17.82 1 27 C0.01 27 -0.98 27 -2 27 C-1.84660156 26.06027344 -1.69320312 25.12054687 -1.53515625 24.15234375 C-0.84297096 19.30704669 -0.65206371 14.4482211 -0.4375 9.5625 C-0.39431641 8.64017578 -0.35113281 7.71785156 -0.30664062 6.76757812 C-0.20145069 4.51183837 -0.09930893 2.25600501 0 0 Z " fill="#FCF8FA" transform="translate(806,522)"/>
<path d="M0 0 C0.99 0.33 1.98 0.66 3 1 C-3 7 -3 7 -5.3828125 7.1953125 C-6.28773438 7.17210937 -7.19265625 7.14890625 -8.125 7.125 C-9.49011719 7.09792969 -9.49011719 7.09792969 -10.8828125 7.0703125 C-11.58148437 7.04710937 -12.28015625 7.02390625 -13 7 C-13.33 6.01 -13.66 5.02 -14 4 C-13.32453125 4.04640625 -12.6490625 4.0928125 -11.953125 4.140625 C-6.26595069 4.51867616 -6.26595069 4.51867616 -1.375 2 C-0.92125 1.34 -0.4675 0.68 0 0 Z " fill="#F6E0DE" transform="translate(877,659)"/>
<path d="M0 0 C0.99 0 1.98 0 3 0 C3 2.97 3 5.94 3 9 C0.36 9 -2.28 9 -5 9 C-5 8.67 -5 8.34 -5 8 C-3.35 8 -1.7 8 0 8 C0 5.36 0 2.72 0 0 Z " fill="#F3FBFA" transform="translate(259,658)"/>
<path d="M0 0 C5.94 0 11.88 0 18 0 C18 1.98 18 3.96 18 6 C17.34 5.01 16.68 4.02 16 3 C13.77770551 2.45249375 13.77770551 2.45249375 11.25 2.375 C7.44462254 2.10476305 3.75726506 1.69212777 0 1 C0 0.67 0 0.34 0 0 Z " fill="#FAF9FA" transform="translate(321,645)"/>
<path d="M0 0 C0.66 0.33 1.32 0.66 2 1 C-0.66666667 3.66666667 -3.33333333 6.33333333 -6 9 C-6.66515625 9.76828125 -7.3303125 10.5365625 -8.015625 11.328125 C-8.67046875 11.87984375 -9.3253125 12.4315625 -10 13 C-12.25 12.75 -12.25 12.75 -14 12 C-12.98679687 11.20335937 -12.98679687 11.20335937 -11.953125 10.390625 C-11.06109375 9.68421875 -10.1690625 8.9778125 -9.25 8.25 C-8.36828125 7.55390625 -7.4865625 6.8578125 -6.578125 6.140625 C-4.24152752 4.20054103 -2.1061438 2.18487814 0 0 Z " fill="#A80D0D" transform="translate(303,544)"/>
<path d="M0 0 C1.18851563 0.00902344 2.37703125 0.01804687 3.6015625 0.02734375 C4.51679688 0.03894531 5.43203125 0.05054688 6.375 0.0625 C6.375 0.3925 6.375 0.7225 6.375 1.0625 C2.745 1.0625 -0.885 1.0625 -4.625 1.0625 C-4.625 1.7225 -4.625 2.3825 -4.625 3.0625 C-7.625 5.0625 -7.625 5.0625 -9.8125 4.6875 C-10.410625 4.48125 -11.00875 4.275 -11.625 4.0625 C-7.79058867 0.05379724 -5.55308608 -0.05444202 0 0 Z " fill="#B60D10" transform="translate(237.625,401.9375)"/>
<path d="M0 0 C0.33 0 0.66 0 1 0 C1.33 5.28 1.66 10.56 2 16 C1.01 15.67 0.02 15.34 -1 15 C-0.67 10.05 -0.34 5.1 0 0 Z " fill="#EEF6F4" transform="translate(713,672)"/>
<path d="M0 0 C1 3 1 3 1 5 C0.01 5 -0.98 5 -2 5 C-1.54625 6.051875 -1.0925 7.10375 -0.625 8.1875 C0.62760001 11.10825453 1.83510021 14.04294668 3 17 C0.05448528 14.25762423 -2.37049756 11.71164445 -4 8 C-3.16183092 4.79971805 -1.84377113 2.7656567 0 0 Z " fill="#A31112" transform="translate(422,671)"/>
<path d="M0 0 C-0.99 0.495 -0.99 0.495 -2 1 C-2 1.66 -2 2.32 -2 3 C-7.28 2.67 -12.56 2.34 -18 2 C-18 1.67 -18 1.34 -18 1 C-11.96445452 0.30739642 -6.07593562 -0.11251733 0 0 Z " fill="#F8FBF9" transform="translate(256,530)"/>
<path d="M0 0 C2.88437779 1.29299694 4.87219421 2.65941363 7 5 C4.75 5.6875 4.75 5.6875 2 6 C-0.3125 4.5625 -0.3125 4.5625 -2 3 C-1.34 2.01 -0.68 1.02 0 0 Z " fill="#F5EAE9" transform="translate(938,373)"/>
<path d="M0 0 C0.33 0 0.66 0 1 0 C0.88487847 1.72985242 0.75744323 3.45888751 0.625 5.1875 C0.55539062 6.15042969 0.48578125 7.11335937 0.4140625 8.10546875 C-0.00215853 11.01508938 -0.79874096 13.32890774 -2 16 C-2.66 15.67 -3.32 15.34 -4 15 C-3.52229477 13.06213915 -3.04278429 11.12472326 -2.5625 9.1875 C-2.29566406 8.10855469 -2.02882813 7.02960937 -1.75390625 5.91796875 C-1.23922588 3.9259157 -0.65062825 1.95188476 0 0 Z " fill="#EFE2E3" transform="translate(832,666)"/>
<path d="M0 0 C-1 3 -1 3 -3 4 C-4.13350534 6.01669827 -4.13350534 6.01669827 -5 8 C-5 7.34 -5 6.68 -5 6 C-5.66 5.67 -6.32 5.34 -7 5 C-6.67 3.35 -6.34 1.7 -6 0 C-2.25 -1.125 -2.25 -1.125 0 0 Z " fill="#F7EDE9" transform="translate(790,660)"/>
<path d="M0 0 C3.50714051 1.89575163 5.94461059 3.53829152 8 7 C8 7.99 8 8.98 8 10 C7.01 10 6.02 10 5 10 C5 9.01 5 8.02 5 7 C4.34 7 3.68 7 3 7 C2.87625 6.360625 2.7525 5.72125 2.625 5.0625 C2.315625 4.0415625 2.315625 4.0415625 2 3 C1.34 2.67 0.68 2.34 0 2 C0 1.34 0 0.68 0 0 Z " fill="#AF0E10" transform="translate(956,339)"/>
<path d="M0 0 C1.65 0.33 3.3 0.66 5 1 C5.33 1.99 5.66 2.98 6 4 C2.32589215 5.17571451 -1.16929183 5.07366746 -5 5 C-5 4.67 -5 4.34 -5 4 C-3.35 4 -1.7 4 0 4 C0 2.68 0 1.36 0 0 Z " fill="#B70D10" transform="translate(871,683)"/>
<path d="M0 0 C1.98 0 3.96 0 6 0 C6 1.32 6 2.64 6 4 C8.64 3.67 11.28 3.34 14 3 C14 3.66 14 4.32 14 5 C12.56260487 5.02712066 11.12506137 5.04645067 9.6875 5.0625 C8.48673828 5.07990234 8.48673828 5.07990234 7.26171875 5.09765625 C5 5 5 5 2 4 C2 3.34 2 2.68 2 2 C1.34 1.34 0.68 0.68 0 0 Z " fill="#F8F9F8" transform="translate(770,675)"/>
<path d="M0 0 C3.63 0 7.26 0 11 0 C10.67 1.32 10.34 2.64 10 4 C10 3.34 10 2.68 10 2 C5.545 2.495 5.545 2.495 1 3 C0.67 2.01 0.34 1.02 0 0 Z " fill="#FAF3F1" transform="translate(806,658)"/>
<path d="M0 0 C8.57142857 -0.14285714 8.57142857 -0.14285714 12 1 C12 1.66 12 2.32 12 3 C8.37 3 4.74 3 1 3 C0.67 2.01 0.34 1.02 0 0 Z " fill="#EED1D0" transform="translate(202,657)"/>
<path d="M0 0 C2.64 0.33 5.28 0.66 8 1 C8 1.66 8 2.32 8 3 C4.37 3.33 0.74 3.66 -3 4 C-2.01 3.67 -1.02 3.34 0 3 C0 2.01 0 1.02 0 0 Z " fill="#B20C0F" transform="translate(218,363)"/>
<path d="M0 0 C3.63 0 7.26 0 11 0 C10.01 1.485 10.01 1.485 9 3 C5.875 3.1875 5.875 3.1875 3 3 C3 2.34 3 1.68 3 1 C2.01 1.33 1.02 1.66 0 2 C0 1.34 0 0.68 0 0 Z " fill="#EBFAF8" transform="translate(940,347)"/>
<path d="M0 0 C3.48331435 3.01887244 4.79157144 5.56909529 6 10 C5.34 10.66 4.68 11.32 4 12 C4 10.68 4 9.36 4 8 C3.34 8 2.68 8 2 8 C0.74335022 5.09399739 0 3.20395416 0 0 Z " fill="#F1E7E8" transform="translate(302,388)"/>
<path d="M0 0 C1.93719378 -0.05406122 3.87481921 -0.09282025 5.8125 -0.125 C6.89144531 -0.14820313 7.97039063 -0.17140625 9.08203125 -0.1953125 C12 0 12 0 15 2 C14 3 14 3 11.5 3.125 C9 3 9 3 8 2 C6.65252916 1.76924918 5.29622435 1.58846937 3.9375 1.4375 C2.638125 1.293125 1.33875 1.14875 0 1 C0 0.67 0 0.34 0 0 Z " fill="#EAF5F4" transform="translate(942,334)"/>
<path d="M0 0 C1.67542976 0.28604898 3.34385343 0.61781233 5 1 C-1.235 4.225 -1.235 4.225 -5.1875 3.0625 C-6.115625 2.711875 -7.04375 2.36125 -8 2 C-8 1.67 -8 1.34 -8 1 C-6.865625 1.020625 -5.73125 1.04125 -4.5625 1.0625 C-1.18424326 1.41577477 -1.18424326 1.41577477 0 0 Z " fill="#F9E8E6" transform="translate(242,481)"/>
<path d="M0 0 C2.97 0 5.94 0 9 0 C8.01 0.495 8.01 0.495 7 1 C7 1.66 7 2.32 7 3 C7.99 3 8.98 3 10 3 C10 3.66 10 4.32 10 5 C8.51800098 4.55090939 7.03944764 4.09043436 5.5625 3.625 C4.73878906 3.36976563 3.91507813 3.11453125 3.06640625 2.8515625 C1 2 1 2 0 0 Z " fill="#D21116" transform="translate(227,432)"/>
<path d="M0 0 C3 3 3 3 3.1875 5.6875 C3.125625 6.450625 3.06375 7.21375 3 8 C2.34 7.01 1.68 6.02 1 5 C0.67 6.32 0.34 7.64 0 9 C-0.66 9 -1.32 9 -2 9 C-1.34 6.03 -0.68 3.06 0 0 Z " fill="#D21114" transform="translate(845,661)"/>
<path d="M0 0 C-2.83430453 3.2542015 -4.68607774 4.5206753 -9 5 C-8 2 -8 2 -5.625 0.25 C-3 -1 -3 -1 0 0 Z " fill="#F4E7E6" transform="translate(358,659)"/>
<path d="M0 0 C0.99 0 1.98 0 3 0 C1.14285714 8.71428571 1.14285714 8.71428571 -2 11 C-2.33 10.01 -2.66 9.02 -3 8 C-2.34 7.67 -1.68 7.34 -1 7 C-0.59270772 4.67843403 -0.25561323 2.3431213 0 0 Z " fill="#AD1214" transform="translate(414,659)"/>
<path d="M0 0 C0.99 0.495 0.99 0.495 2 1 C2 1.99 2 2.98 2 4 C3.32 4 4.64 4 6 4 C6 4.66 6 5.32 6 6 C5.34 6 4.68 6 4 6 C4 7.98 4 9.96 4 12 C2.09681116 9.14521674 1.5380901 7.58058692 0.875 4.3125 C0.70742188 3.50425781 0.53984375 2.69601562 0.3671875 1.86328125 C0.24601562 1.24839844 0.12484375 0.63351562 0 0 Z " fill="#A31213" transform="translate(313,482)"/>
<path d="M0 0 C2.64 0 5.28 0 8 0 C7.0409375 0.1546875 7.0409375 0.1546875 6.0625 0.3125 C5.381875 0.539375 4.70125 0.76625 4 1 C3.67 1.99 3.34 2.98 3 4 C1.68 3.67 0.36 3.34 -1 3 C-0.67 2.01 -0.34 1.02 0 0 Z " fill="#F7F8F6" transform="translate(352,675)"/>
<path d="M0 0 C0.66 1.32 1.32 2.64 2 4 C1.01 4.33 0.02 4.66 -1 5 C-1 4.34 -1 3.68 -1 3 C-4.3 3 -7.6 3 -11 3 C-11 2.67 -11 2.34 -11 2 C-10.28972656 1.93941406 -9.57945312 1.87882813 -8.84765625 1.81640625 C-7.46900391 1.69072266 -7.46900391 1.69072266 -6.0625 1.5625 C-5.14597656 1.48128906 -4.22945312 1.40007813 -3.28515625 1.31640625 C-1.03840268 1.23955024 -1.03840268 1.23955024 0 0 Z " fill="#B93E40" transform="translate(774,667)"/>
<path d="M0 0 C7.42857143 -0.14285714 7.42857143 -0.14285714 11 1 C11 1.99 11 2.98 11 4 C9.35 4 7.7 4 6 4 C6 3.34 6 2.68 6 2 C3.03 1.505 3.03 1.505 0 1 C0 0.67 0 0.34 0 0 Z " fill="#F3D1D0" transform="translate(626,657)"/>
<path d="M0 0 C0.66 0 1.32 0 2 0 C2 1.98 2 3.96 2 6 C0.0625 5.6875 0.0625 5.6875 -2 5 C-2.33 4.01 -2.66 3.02 -3 2 C-2.01 2 -1.02 2 0 2 C0 1.34 0 0.68 0 0 Z " fill="#B81317" transform="translate(933,361)"/>
<path d="M0 0 C0.99 0.99 1.98 1.98 3 3 C2.67 3.99 2.34 4.98 2 6 C-0.0625 6.6875 -0.0625 6.6875 -2 7 C-2.33 5.68 -2.66 4.36 -3 3 C-2.34 3 -1.68 3 -1 3 C-0.67 2.01 -0.34 1.02 0 0 Z " fill="#F5E3E2" transform="translate(967,343)"/>
<path d="M0 0 C0 0.66 0 1.32 0 2 C-2.97 2 -5.94 2 -9 2 C-9 1.34 -9 0.68 -9 0 C-2.25 -1.125 -2.25 -1.125 0 0 Z " fill="#FCF1F1" transform="translate(672,697)"/>
<path d="M0 0 C1.32 0 2.64 0 4 0 C4 2.64 4 5.28 4 8 C3.34 8 2.68 8 2 8 C1.34 5.36 0.68 2.72 0 0 Z " fill="#F8EDEB" transform="translate(255,658)"/>
<path d="M0 0 C3.63 0 7.26 0 11 0 C11 0.33 11 0.66 11 1 C9.9275 1.12375 8.855 1.2475 7.75 1.375 C4.62136385 1.89643936 2.66519576 2.40088254 0 4 C0 2.68 0 1.36 0 0 Z " fill="#BA2527" transform="translate(251,657)"/>
<path d="M0 0 C1.32 0.99 2.64 1.98 4 3 C3.67 4.32 3.34 5.64 3 7 C2.34 7 1.68 7 1 7 C-0.625 5 -0.625 5 -2 3 C-1.34 2.01 -0.68 1.02 0 0 Z " fill="#F1E1E1" transform="translate(928,341)"/>
<path d="M0 0 C0.66 0.33 1.32 0.66 2 1 C-0.3125 3.5 -0.3125 3.5 -3 6 C-3.99 6 -4.98 6 -6 6 C-4.98545548 3.4636387 -4.3146444 2.20648539 -2 0.6875 C-1.34 0.460625 -0.68 0.23375 0 0 Z " fill="#F9F7F6" transform="translate(936,338)"/>
<path d="M0 0 C-1.36983503 3.16115776 -1.9890638 3.9927092 -5 6 C-5.33 4.35 -5.66 2.7 -6 1 C-3 0 -3 0 0 0 Z " fill="#F6FBFA" transform="translate(966,369)"/>
<path d="M0 0 C2.31 0 4.62 0 7 0 C7 0.66 7 1.32 7 2 C4.29120665 3.35439668 1.99066732 3.06501451 -1 3 C-0.67 2.01 -0.34 1.02 0 0 Z " fill="#B30D10" transform="translate(227,566)"/>
<path d="M0 0 C3.465 1.98 3.465 1.98 7 4 C6.67 4.66 6.34 5.32 6 6 C5.01 6 4.02 6 3 6 C0 2.66666667 0 2.66666667 0 0 Z " fill="#F2E1E2" transform="translate(182,541)"/>
</svg>
